<svg width="24" height="24" viewBox="0 0 24 24" fill="none" xmlns="http://www.w3.org/2000/svg">
<path d="M17.7273 19.7692V21.3846C17.7273 21.813 17.5548 22.224 17.248 22.5269C16.9412 22.8297 16.5249 23 16.0909 23H4.63636C4.20237 23 3.78616 22.8297 3.47927 22.5269C3.17241 22.224 3 21.813 3 21.3846V3.61538C3 3.18695 3.17241 2.77608 3.47927 2.47313C3.78616 2.17019 4.20237 2 4.63636 2H16.0909C16.5249 2 16.9412 2.17019 17.248 2.47313C17.5548 2.77608 17.7273 3.18695 17.7273 3.61538V5.23077M9.54545 12.5H21M21 12.5L17.7273 9.26923M21 12.5L17.7273 15.7308" stroke="#14315B" stroke-width="1.5" stroke-linecap="round" stroke-linejoin="round"/>
</svg>
