<svg width="24" height="24" viewBox="0 0 24 24" fill="none" xmlns="http://www.w3.org/2000/svg">
<path d="M22 17V20.3333C22 20.7753 21.8243 21.1993 21.5118 21.5118C21.1993 21.8243 20.7753 22 20.3333 22H17M17 2H20.3333C20.7753 2 21.1993 2.1756 21.5118 2.48815C21.8243 2.80072 22 3.22463 22 3.66667V7M2 7V3.66667C2 3.22463 2.1756 2.80072 2.48815 2.48815C2.80072 2.1756 3.22463 2 3.66667 2H7M7 22H3.66667C3.22463 22 2.80072 21.8243 2.48815 21.5118C2.1756 21.1993 2 20.7753 2 20.3333V17M11.9996 11.1666C13.8405 11.1666 15.3329 9.67425 15.3329 7.83332C15.3329 5.99238 13.8405 4.5 11.9996 4.5C10.1586 4.5 8.66627 5.99238 8.66627 7.83332C8.66627 9.67425 10.1586 11.1666 11.9996 11.1666ZM11.9995 13.6667C8.89313 13.6667 6.28297 15.7913 5.54288 18.6667H18.4562C17.7162 15.7913 15.1059 13.6667 11.9995 13.6667Z" stroke="#14315B" stroke-width="1.5" stroke-linecap="round" stroke-linejoin="round"/>
</svg>
