<svg width="24" height="24" viewBox="0 0 24 24" fill="none" xmlns="http://www.w3.org/2000/svg">
<path d="M21 11.0833H3M21 11.0833V2.83333L16.5 5.58333L12 1L7.5 5.58333L3 2.83333V11.0833M21 11.0833V13.8333M3 11.0833V13.8333M21 13.8333C21 18.8959 16.9706 23 12 23C7.02944 23 3 18.8959 3 13.8333M21 13.8333C21 14.7859 20.8573 15.7045 20.5927 16.5682C20.4296 16.5782 20.2654 16.5832 20.1 16.5832C17.5555 16.5832 15.285 15.3882 13.8 13.5191C12.315 15.3882 10.0445 16.5832 7.5 16.5832C5.88182 16.5832 4.37446 16.0999 3.10949 15.2673C3.03742 14.8001 3 14.3212 3 13.8333" stroke="#14315B" stroke-width="1.5" stroke-linecap="round" stroke-linejoin="round"/>
</svg>
