<svg width="42" height="42" viewBox="0 0 42 42" fill="none" xmlns="http://www.w3.org/2000/svg">
<path d="M16.3846 31.7693H4.07693C3.26087 31.7693 2.47825 31.445 1.90121 30.8681C1.32418 30.2911 1 29.5084 1 28.6924V4.07693C1 3.26087 1.32418 2.47825 1.90121 1.90121C2.47825 1.32418 3.26087 1 4.07693 1H28.6924C29.5084 1 30.2911 1.32418 30.8681 1.90121C31.445 2.47825 31.7693 3.26087 31.7693 4.07693V16.3846" stroke="#14315B" stroke-width="2" stroke-linecap="round" stroke-linejoin="round"/>
<path d="M1 19.7811C2.16187 19.5711 3.35865 19.4614 4.58105 19.4614C9.44079 19.4614 13.8957 21.1947 17.3613 24.0768" stroke="#14315B" stroke-width="2" stroke-linecap="round" stroke-linejoin="round"/>
<path d="M22.5381 36.3846C22.5381 31.2864 26.6708 27.1538 31.7687 27.1538C36.8669 27.1538 40.9995 31.2864 40.9995 36.3846V37.9231C40.9995 39.6224 39.622 41 37.9226 41H25.615C23.9157 41 22.5381 39.6224 22.5381 37.9231V36.3846Z" stroke="#14315B" stroke-width="2" stroke-linecap="round" stroke-linejoin="round"/>
<path d="M27.9235 35.6154C27.4987 35.6154 27.1543 35.2711 27.1543 34.8461C27.1543 34.4212 27.4987 34.0769 27.9235 34.0769" stroke="#14315B" stroke-width="2" stroke-linecap="round" stroke-linejoin="round"/>
<path d="M27.9229 35.6154C28.3477 35.6154 28.6921 35.2711 28.6921 34.8461C28.6921 34.4212 28.3477 34.0769 27.9229 34.0769" stroke="#14315B" stroke-width="2" stroke-linecap="round" stroke-linejoin="round"/>
<path d="M35.6154 35.6154C35.1908 35.6154 34.8462 35.2711 34.8462 34.8461C34.8462 34.4212 35.1908 34.0769 35.6154 34.0769" stroke="#14315B" stroke-width="2" stroke-linecap="round" stroke-linejoin="round"/>
<path d="M35.6157 35.6154C36.0406 35.6154 36.385 35.2711 36.385 34.8461C36.385 34.4212 36.0406 34.0769 35.6157 34.0769" stroke="#14315B" stroke-width="2" stroke-linecap="round" stroke-linejoin="round"/>
<path d="M31.7695 27.154V22.5386" stroke="#14315B" stroke-width="2" stroke-linecap="round" stroke-linejoin="round"/>
<path d="M18.6924 14.8464C20.8165 14.8464 22.5385 13.1244 22.5385 11.0002C22.5385 8.87603 20.8165 7.15405 18.6924 7.15405C16.5682 7.15405 14.8462 8.87603 14.8462 11.0002C14.8462 13.1244 16.5682 14.8464 18.6924 14.8464Z" stroke="#14315B" stroke-width="2" stroke-linecap="round" stroke-linejoin="round"/>
</svg>
