<svg width="40" height="42" viewBox="0 0 40 42" fill="none" xmlns="http://www.w3.org/2000/svg">
<path d="M4.04 30.2308C4.04 33.6295 6.76211 36.3846 10.12 36.3846H15.82M11.64 41L16.2 36.3846L11.64 31.7692M25.7 5.61538H31.4C34.758 5.61538 37.48 8.37055 37.48 11.7692M29.88 1L25.32 5.61538L29.88 10.2308M23.8 39.4615C23.8 35.2132 27.2026 31.7692 31.4 31.7692C35.5973 31.7692 39 35.2132 39 39.4615M6.32 7.15385V4.84615C6.32 2.72197 8.02131 1 10.12 1C12.2187 1 13.92 2.72197 13.92 4.84615V7.15385M35.2 23.3077C35.2 24.3278 34.7996 25.306 34.087 26.0273C33.3744 26.7486 32.4078 27.1538 31.4 27.1538C30.3922 27.1538 29.4256 26.7486 28.713 26.0273C28.0004 25.306 27.6 24.3278 27.6 23.3077C27.6 22.2876 28.0004 21.3093 28.713 20.5881C29.4256 19.8668 30.3922 19.4615 31.4 19.4615C32.4078 19.4615 33.3744 19.8668 34.087 20.5881C34.7996 21.3093 35.2 22.2876 35.2 23.3077ZM1 8.69231C1 7.84265 1.68053 7.15385 2.52 7.15385H17.72C18.5595 7.15385 19.24 7.84265 19.24 8.69231V17.9231C19.24 18.7727 18.5595 19.4615 17.72 19.4615H2.52C1.68053 19.4615 1 18.7727 1 17.9231V8.69231Z" stroke="#14315B" stroke-width="2" stroke-linecap="round" stroke-linejoin="round"/>
</svg>
