<svg width="42" height="40" viewBox="0 0 42 40" fill="none" xmlns="http://www.w3.org/2000/svg">
<path d="M34.1972 27.8562L24.5711 34.808C22.5357 36.3014 19.8256 36.3995 17.6778 35.0576L1 24.6382M41 22.9556L34.1972 27.8328L23.5691 17.3291L19.876 20.106C18.203 21.3639 15.797 21.0343 14.5439 19.3756C13.39 17.8481 13.6181 15.7147 15.0703 14.4524L19.8531 10.295C21.4328 8.92189 23.4481 8.11984 25.5617 8.02312L32.5797 7.70203L41 3M23.5706 17.3458C26.1211 19.6922 29.7381 18.4951 31.083 16.5798M1 4.45604L7.82858 8.25271L13.9171 7.16365C15.98 6.79465 18.0894 7.40221 19.6653 8.81926L20.5312 9.72114" stroke="#14315B" stroke-width="2" stroke-linecap="round" stroke-linejoin="round"/>
</svg>
