<svg width="42" height="42" viewBox="0 0 42 42" fill="none" xmlns="http://www.w3.org/2000/svg">
<path d="M21 21V25.1667L24.3333 26M9.33333 1V11M32.6667 1V11M21 34.3333C26.5228 34.3333 31 29.8562 31 24.3333C31 18.8105 26.5228 14.3333 21 14.3333C15.4772 14.3333 11 18.8105 11 24.3333C11 29.8562 15.4772 34.3333 21 34.3333ZM4.33333 6C3.44927 6 2.60143 6.3512 1.9763 6.9763C1.3512 7.60143 1 8.44927 1 9.33333V37.6667C1 38.5507 1.3512 39.3987 1.9763 40.0237C2.60143 40.6487 3.44927 41 4.33333 41H37.6667C38.5507 41 39.3987 40.6487 40.0237 40.0237C40.6487 39.3987 41 38.5507 41 37.6667V9.33333C41 8.44927 40.6487 7.60143 40.0237 6.9763C39.3987 6.3512 38.5507 6 37.6667 6H4.33333Z" stroke="#14315B" stroke-width="2" stroke-linecap="round" stroke-linejoin="round"/>
</svg>
