<svg width="42" height="42" viewBox="0 0 42 42" fill="none" xmlns="http://www.w3.org/2000/svg">
<path d="M40.9997 41V34.5767C40.9997 29.8399 37.1597 26 32.423 26H29.3331V16.8333C29.3331 14.5321 27.4676 12.6667 25.1664 12.6667C22.8652 12.6667 20.9997 14.5321 20.9997 16.8333V29.3333L20.8365 29.3605C16.4797 30.0867 14.5564 35.268 17.3839 38.661L19.3331 41M32.6667 9.33333H39.3333C40.2537 9.33333 41 8.58713 41 7.66667V2.66667C41 1.7462 40.2537 1 39.3333 1H26C25.0795 1 24.3333 1.7462 24.3333 2.66667V6M14.3333 16H2.66667C1.7462 16 1 16.7462 1 17.6667V22.6667C1 23.5871 1.7462 24.3333 2.66667 24.3333H11M16 1H2.66667C1.7462 1 1 1.7462 1 2.66667V7.66667C1 8.58713 1.7462 9.33333 2.66667 9.33333H16C16.9205 9.33333 17.6667 8.58713 17.6667 7.66667V2.66667C17.6667 1.7462 16.9205 1 16 1Z" stroke="#14315B" stroke-width="2" stroke-linecap="round" stroke-linejoin="round"/>
</svg>
