<svg width="42" height="40" viewBox="0 0 42 40" fill="none" xmlns="http://www.w3.org/2000/svg">
<path d="M6.53569 15.4744L1 10.2427M15.2289 9.3369L13.1732 3M35.5502 15.5682L41 10.2427M26.7835 9.33693L28.8269 3M20.9997 8.39922C7.8932 8.39922 2.39047 21.9649 2.39047 22.1996C2.39047 22.4343 7.8932 36 20.9997 36C34.1062 36 39.6089 22.4343 39.6089 22.1996C39.6089 21.9649 34.1062 8.39922 20.9997 8.39922ZM15.5633 22.1999C15.5535 23.5859 16.117 24.9151 17.1298 25.8952C18.1425 26.8752 19.5215 27.4258 20.9635 27.4258C22.4055 27.4258 23.7922 26.8752 24.8187 25.8952C25.8452 24.9151 26.4274 23.5859 26.4371 22.1999C26.4469 20.8139 25.8834 19.4847 24.8707 18.5046C23.8579 17.5246 22.4789 16.974 21.0369 16.974C19.595 16.974 18.2082 17.5246 17.1817 18.5046C16.1552 19.4847 15.573 20.8139 15.5633 22.1999Z" stroke="#14315B" stroke-width="2" stroke-linecap="round" stroke-linejoin="round"/>
</svg>
