<svg width="42" height="40" viewBox="0 0 42 40" fill="none" xmlns="http://www.w3.org/2000/svg">
<path d="M4.07692 21.0417H1M37.9231 21.0417H41M32.9665 9.05046L35.1422 6.87023M9.03354 9.05046L6.85782 6.87023M21 4.08333V1M21 9.47917C14.6275 9.47917 9.46154 14.6559 9.46154 21.0417C9.46154 25.783 12.3094 29.8578 16.3846 31.6422V36.4583C16.3846 37.3096 17.0734 38 17.9231 38H24.0769C24.9266 38 25.6154 37.3096 25.6154 36.4583V31.6422C29.6906 29.8578 32.5385 25.783 32.5385 21.0417C32.5385 14.6559 27.3725 9.47917 21 9.47917Z" stroke="#14315B" stroke-width="2" stroke-linecap="round" stroke-linejoin="round"/>
</svg>
