<svg width="42" height="42" viewBox="0 0 42 42" fill="none" xmlns="http://www.w3.org/2000/svg">
<path d="M19.4615 37.9231H4.07692C2.37758 37.9231 1 36.5455 1 34.8462V19.2766C1 18.4142 1.36199 17.5913 1.99777 17.0085L19.4615 1L30.2308 10.8718M41 27.1538C41 34.8462 31.7692 41 31.7692 41C31.7692 41 22.5385 34.8462 22.5385 27.1538C22.5385 22.0558 26.6712 17.9231 31.7692 17.9231C36.8674 17.9231 41 22.0558 41 27.1538ZM31.7692 28.6923C32.6188 28.6923 33.3077 28.0035 33.3077 27.1538C33.3077 26.3042 32.6188 25.6154 31.7692 25.6154C30.9197 25.6154 30.2308 26.3042 30.2308 27.1538C30.2308 28.0035 30.9197 28.6923 31.7692 28.6923Z" stroke="#14315B" stroke-width="2" stroke-linecap="round" stroke-linejoin="round"/>
</svg>
