<svg width="42" height="42" viewBox="0 0 42 42" fill="none" xmlns="http://www.w3.org/2000/svg">
<path d="M16.3846 20.2308V17.1538C16.3846 14.6048 18.451 12.5385 21 12.5385C23.549 12.5385 25.6154 14.6048 25.6154 17.1538V20.2308M39.4671 13.3077C36.4532 6.08015 29.3198 1 21 1C9.95431 1 1 9.95431 1 21C1 32.0458 9.95431 41 21 41C30.4572 41 38.3812 34.436 40.4649 25.6154M41 5.61538V13.3077H33.3077M14.0769 27.9231V21.7692C14.0769 20.9196 14.7657 20.2308 15.6154 20.2308H26.3846C27.2343 20.2308 27.9231 20.9196 27.9231 21.7692V27.9231C27.9231 28.7727 27.2343 29.4615 26.3846 29.4615H15.6154C14.7657 29.4615 14.0769 28.7727 14.0769 27.9231Z" stroke="#14315B" stroke-width="2" stroke-linecap="round" stroke-linejoin="round"/>
</svg>
