<svg width="42" height="42" viewBox="0 0 42 42" fill="none" xmlns="http://www.w3.org/2000/svg">
<path d="M13.3077 34.8462C13.3077 36.4783 12.6593 38.0435 11.5053 39.1976C10.3512 40.3516 8.78595 41 7.15385 41C5.52175 41 3.95649 40.3516 2.80242 39.1976C1.64835 38.0435 1 36.4783 1 34.8462C1 33.2141 1.64835 31.6488 2.80242 30.4947C3.95649 29.3407 5.52175 28.6923 7.15385 28.6923C8.78595 28.6923 10.3512 29.3407 11.5053 30.4947C12.6593 31.6488 13.3077 33.2141 13.3077 34.8462ZM13.3077 34.8462H17.9233C21.3219 34.8462 24.0771 32.0911 24.0771 28.6923V13.3077C24.0771 9.90902 26.8323 7.15385 30.2311 7.15385L41 7.15366M34.8462 1L41 7.15366M41 7.15366L34.8462 13.3075M1.63785 9.46237C0.787385 9.31191 0.787382 8.07046 1.63785 7.92C4.71895 7.37492 7.16954 4.98858 7.83828 1.88203L7.88954 1.64391C8.07354 0.7892 9.27037 0.78388 9.46169 1.63692L9.52394 1.91443C10.2175 5.00631 12.6687 7.37252 15.7413 7.91606C16.5961 8.06729 16.5961 9.31508 15.7413 9.46631C12.6687 10.0098 10.2175 12.3761 9.52394 15.4679L9.46169 15.7454C9.27037 16.5985 8.07354 16.5932 7.88954 15.7385L7.83828 15.5003C7.16954 12.3938 4.71895 10.0074 1.63785 9.46237Z" stroke="#14315B" stroke-width="2" stroke-linecap="round" stroke-linejoin="round"/>
</svg>
