<svg width="42" height="42" viewBox="0 0 42 42" fill="none" xmlns="http://www.w3.org/2000/svg">
<path d="M21 1V7.55983C20.1834 6.829 19.1052 6.3846 17.9231 6.3846C15.3741 6.3846 13.3077 8.451 13.3077 11C13.3077 13.549 15.3741 15.6154 17.9231 15.6154C19.1052 15.6154 20.1834 15.171 21 14.4402V27.5598C21.8165 26.829 22.8948 26.3846 24.0769 26.3846C26.6259 26.3846 28.6923 28.451 28.6923 31C28.6923 33.549 26.6259 35.6153 24.0769 35.6153C22.8948 35.6153 21.8165 35.171 21 34.44V41M1 21H7.55983C6.829 21.8165 6.3846 22.8948 6.3846 24.0769C6.3846 26.6259 8.451 28.6923 11 28.6923C13.549 28.6923 15.6154 26.6259 15.6154 24.0769C15.6154 22.8948 15.171 21.8165 14.4402 21H27.5598C26.829 20.1834 26.3846 19.1052 26.3846 17.9231C26.3846 15.3741 28.451 13.3077 31 13.3077C33.549 13.3077 35.6153 15.3741 35.6153 17.9231C35.6153 19.1052 35.171 20.1834 34.44 21H41M37.6667 1H4.33333C2.4924 1 1 2.4924 1 4.33333V37.6667C1 39.5077 2.4924 41 4.33333 41H37.6667C39.5077 41 41 39.5077 41 37.6667V4.33333C41 2.4924 39.5077 1 37.6667 1Z" stroke="#14315B" stroke-width="2" stroke-linecap="round" stroke-linejoin="round"/>
</svg>
