<svg width="42" height="42" viewBox="0 0 42 42" fill="none" xmlns="http://www.w3.org/2000/svg">
<path d="M13.3077 33.3077H16.3846M14.8461 1H4.07691C2.37758 1 1 2.37758 1 4.07692V37.9231C1 39.6225 2.37758 41 4.07691 41H25.6153C27.3146 41 28.6922 39.6225 28.6922 37.9231V27.1538M31.563 20.9007C31.1968 21.0331 30.7959 21.0331 30.4298 20.9007C27.6496 19.7994 25.2642 17.8889 23.5823 15.4165C21.9004 12.9441 20.9994 10.0238 20.996 7.03354V2.66674C20.9825 2.4555 21.0118 2.24373 21.0824 2.04418C21.153 1.84462 21.2632 1.66144 21.4065 1.50567C21.5498 1.34991 21.7232 1.22479 21.9162 1.13789C22.1092 1.05098 22.3178 1.00407 22.5294 1H39.4633C39.675 1.00407 39.8836 1.05098 40.0765 1.13789C40.2694 1.22479 40.443 1.34991 40.586 1.50567C40.7294 1.66144 40.8396 1.84462 40.9103 2.04418C40.9808 2.24373 41.0103 2.4555 40.9968 2.66674V7.03354C40.9934 10.0238 40.0922 12.9441 38.4103 15.4165C36.7285 17.8889 34.343 19.7994 31.563 20.9007Z" stroke="#14315B" stroke-width="2" stroke-linecap="round" stroke-linejoin="round"/>
</svg>
