<svg width="42" height="42" viewBox="0 0 42 42" fill="none" xmlns="http://www.w3.org/2000/svg">
<path d="M26.0053 9.31505L12.9171 14.2231M27.9231 30.2308V26.3846C27.9231 23.4108 30.3338 21 33.3077 21C36.2815 21 38.6923 23.4108 38.6923 26.3846V30.2308M12.9171 18.5458L21.7186 21.8464M31.7692 13.3077C35.168 13.3077 37.9231 10.5525 37.9231 7.15385C37.9231 3.75517 35.168 1 31.7692 1C28.3706 1 25.6154 3.75517 25.6154 7.15385C25.6154 10.5525 28.3706 13.3077 31.7692 13.3077ZM7.15385 22.5385C10.5525 22.5385 13.3077 19.7833 13.3077 16.3846C13.3077 12.9859 10.5525 10.2308 7.15385 10.2308C3.75517 10.2308 1 12.9859 1 16.3846C1 19.7833 3.75517 22.5385 7.15385 22.5385ZM25.6154 39.4615V31.7692C25.6154 30.9197 26.3042 30.2308 27.1538 30.2308H39.4615C40.3111 30.2308 41 30.9197 41 31.7692V39.4615C41 40.3111 40.3111 41 39.4615 41H27.1538C26.3042 41 25.6154 40.3111 25.6154 39.4615Z" stroke="#14315B" stroke-width="2" stroke-linecap="round" stroke-linejoin="round"/>
</svg>
