<svg width="42" height="42" viewBox="0 0 42 42" fill="none" xmlns="http://www.w3.org/2000/svg">
<path d="M16.2597 4.01445L10.2308 10.0434L16.2597 16.0723M34.9711 4.01445L41 10.0434L34.9711 16.0723M22.6008 19.0868L28.6297 1M1 33.3076L8.51917 39.5735C9.62511 40.4951 11.0192 41 12.4588 41H32.2822C33.6982 41 34.8462 39.852 34.8462 38.4357C34.8462 35.6037 32.5502 33.3076 29.7179 33.3076H15.9363M10.2308 30.2306L12.5385 32.5384C13.813 33.8129 15.8794 33.8129 17.1538 32.5384C18.4283 31.2639 18.4283 29.1974 17.1538 27.9229L13.5717 24.3407C12.4176 23.1866 10.8523 22.5383 9.22022 22.5383H1" stroke="#14315B" stroke-width="2" stroke-linecap="round" stroke-linejoin="round"/>
</svg>
