<svg width="216" height="40" viewBox="0 0 216 40" fill="none" xmlns="http://www.w3.org/2000/svg">
<path d="M1.30045 16.6597C1.30045 15.0181 2.35133 15.274 3.80968 15.274C5.26802 15.274 6.29744 15.0181 6.29744 16.6597V32.6493C6.29744 34.3123 5.24657 33.9711 3.80968 33.9711C2.37278 33.9711 1.30045 34.3123 1.30045 32.6493V16.6597Z" stroke="#14315B" stroke-width="2" stroke-linecap="round" stroke-linejoin="round"/>
<path d="M5.79246 10.7253C6.31415 10.1908 6.60331 9.47363 6.59748 8.7289C6.57031 8.00644 6.26657 7.32158 5.74835 6.81434C5.23013 6.3071 4.53656 6.0158 3.80947 6C3.08023 6.01551 2.38424 6.30609 1.86255 6.81282C1.34084 7.31955 1.0325 8.00454 1 8.7289C1.01049 9.47236 1.3079 10.1834 1.83078 10.7151C2.35364 11.2468 3.06201 11.5584 3.80947 11.5857C4.55848 11.5689 5.27077 11.2599 5.79246 10.7253Z" stroke="#14315B" stroke-width="2" stroke-linecap="round" stroke-linejoin="round"/>
<path d="M10.587 16.6597C10.587 15.743 10.9302 15.4019 11.4664 15.2952C12.0025 15.1886 13.8469 15.2952 14.4903 15.2952C15.1337 15.2952 15.391 16.3399 15.3696 17.1287C15.9199 16.3945 16.6506 15.8129 17.4917 15.4396C18.3328 15.0663 19.2562 14.9139 20.1735 14.9968C21.0743 14.942 21.9768 15.0763 22.822 15.3908C23.667 15.7054 24.4361 16.1931 25.0794 16.8225C25.7227 17.4518 26.2254 18.2086 26.5551 19.0437C26.8849 19.8788 27.0342 20.7735 26.9934 21.6698V32.5853C26.9934 34.2483 25.9641 33.9072 24.5057 33.9072C23.0473 33.9072 22.0179 34.2483 22.0179 32.5853V24.0575C22.0556 23.6186 21.998 23.1768 21.8487 22.7621C21.6994 22.3473 21.462 21.9694 21.1528 21.6539C20.8436 21.3384 20.4696 21.0927 20.0564 20.9336C19.6432 20.7745 19.2004 20.7056 18.7581 20.7317C18.3178 20.7206 17.8802 20.8026 17.4741 20.9722C17.0681 21.1419 16.703 21.3953 16.4029 21.7158C16.1028 22.0363 15.8747 22.4165 15.7335 22.8312C15.5923 23.2459 15.5414 23.6857 15.584 24.1215V32.6493C15.584 34.3123 14.5332 33.9711 13.0748 33.9711C11.6165 33.9711 10.587 34.3123 10.587 32.6493V16.6597Z" stroke="#14315B" stroke-width="2" stroke-linecap="round" stroke-linejoin="round"/>
<path d="M71 6L60.8947 17.7895M47 34L57.1053 22.2105M53.5455 6H47L64.4545 34H71L53.5455 6Z" stroke="#14315B" stroke-width="2" stroke-linecap="round" stroke-linejoin="round"/>
<path d="M91 12C91 8.6863 93.6863 6 97 6H113C116.314 6 119 8.6863 119 12V28.0001C119 31.3136 116.314 34 113 34H97C93.6863 34 91 31.3136 91 28.0001V12Z" stroke="#14315B" stroke-width="2" stroke-linecap="round" stroke-linejoin="round"/>
<path d="M113.073 12.1976C112.751 12.1976 112.49 11.9365 112.49 11.6143C112.49 11.2921 112.751 11.031 113.073 11.031" stroke="#14315B" stroke-width="2" stroke-linecap="round" stroke-linejoin="round"/>
<path d="M113.073 12.1976C113.395 12.1976 113.656 11.9365 113.656 11.6143C113.656 11.2921 113.395 11.031 113.073 11.031" stroke="#14315B" stroke-width="2" stroke-linecap="round" stroke-linejoin="round"/>
<path d="M99.0499 20C99.0499 20.7814 99.2038 21.5551 99.5028 22.277C99.8019 22.9989 100.24 23.6548 100.793 24.2073C101.345 24.7598 102.001 25.1981 102.723 25.4971C103.445 25.7961 104.219 25.95 105 25.95C105.781 25.95 106.555 25.7961 107.277 25.4971C107.999 25.1981 108.655 24.7598 109.207 24.2073C109.76 23.6548 110.198 22.9989 110.497 22.277C110.796 21.5551 110.95 20.7814 110.95 20C110.95 18.422 110.323 16.9086 109.207 15.7927C108.091 14.6769 106.578 14.05 105 14.05C103.422 14.05 101.908 14.6769 100.793 15.7927C99.6768 16.9086 99.0499 18.422 99.0499 20Z" stroke="#14315B" stroke-width="2" stroke-linecap="round" stroke-linejoin="round"/>
<path d="M139 31.6667V8.33333C139 7.71449 139.246 7.121 139.683 6.68341C140.121 6.24584 140.714 6 141.333 6H164.667C165.285 6 165.879 6.24584 166.317 6.68341C166.754 7.121 167 7.71449 167 8.33333V31.6667C167 32.2855 166.754 32.8791 166.317 33.3166C165.879 33.7541 165.285 34 164.667 34H157.667V24.69H159.323C159.701 24.69 160.063 24.54 160.33 24.2731C160.597 24.0062 160.747 23.6442 160.747 23.2667V21.47C160.747 21.2831 160.71 21.098 160.638 20.9253C160.567 20.7526 160.462 20.5957 160.33 20.4635C160.198 20.3314 160.041 20.2265 159.868 20.155C159.695 20.0835 159.51 20.0467 159.323 20.0467H157.76V18.4367C157.76 16.4767 158.647 16.4767 159.533 16.4767H160.677C160.864 16.4844 161.052 16.4508 161.225 16.3782C161.398 16.3057 161.554 16.1959 161.68 16.0567C161.816 15.9276 161.923 15.7717 161.995 15.5991C162.068 15.4263 162.103 15.2405 162.1 15.0533V13.3267C162.106 13.1367 162.075 12.9473 162.008 12.7694C161.941 12.5915 161.84 12.4285 161.709 12.2898C161.579 12.1512 161.423 12.0394 161.25 11.9611C161.077 11.8828 160.89 11.8394 160.7 11.8333C158.212 11.8333 155.675 11.5699 153.828 13.5794C152.132 15.4247 152.44 17.7383 152.44 20.0467H150.947C150.758 20.0436 150.57 20.0781 150.395 20.1482C150.219 20.2184 150.06 20.3227 149.925 20.4552C149.79 20.5877 149.684 20.7456 149.611 20.9199C149.538 21.0941 149.5 21.2811 149.5 21.47V23.2667C149.5 23.4555 149.538 23.6426 149.611 23.8168C149.684 23.991 149.79 24.149 149.925 24.2815C150.06 24.4139 150.219 24.5183 150.395 24.5884C150.57 24.6586 150.758 24.6931 150.947 24.69H152.44V34H141.333C140.714 34 140.121 33.7541 139.683 33.3166C139.246 32.8791 139 32.2855 139 31.6667Z" stroke="#14315B" stroke-width="2" stroke-linecap="round" stroke-linejoin="round"/>
<path d="M200.996 6C193.373 6.00238 187.004 12.3812 187.004 20C187.004 22.7467 187.822 25.46 189.347 27.7538L187 34L194.859 32.5785C196.779 33.5169 198.887 33.9873 200.996 33.9888C208.625 33.9938 215 27.6235 215 20C215 12.3852 208.623 5.9955 200.996 6Z" stroke="#14315B" stroke-width="2" stroke-linecap="round" stroke-linejoin="round"/>
<path d="M201.767 26.1655C203.705 27.4101 205.728 26.4526 207.106 25.397C207.992 24.7182 207.963 23.4337 207.199 22.62L205.517 20.8284C204.91 21.4353 203.728 21.7357 202.906 21.4856C201.141 20.9481 200.4 20.0278 199.799 19.092C199.109 18.0173 199.888 16.4122 200.495 15.8053L198.639 14.1102C197.931 13.4637 196.856 13.3541 196.228 14.0782C194.893 15.6165 194.043 18.0074 195.015 19.5207C196.73 22.1933 199.095 24.4498 201.767 26.1655Z" stroke="#14315B" stroke-width="2" stroke-linecap="round" stroke-linejoin="round"/>
</svg>
