<svg width="42" height="42" viewBox="0 0 42 42" fill="none" xmlns="http://www.w3.org/2000/svg">
<path d="M13.9476 27.9229C15.1346 25.2061 17.8455 23.3075 20.9998 23.3075C24.1541 23.3075 26.865 25.2061 28.052 27.9229M1.53517 25.6152C1.1852 24.1336 1 22.5884 1 20.9998C1 19.4113 1.1852 17.8661 1.53517 16.3845M16.3845 1.53517C17.8661 1.1852 19.4113 1 20.9998 1C22.5884 1 24.1336 1.1852 25.6152 1.53517M40.4649 16.3845C40.8148 17.8661 41 19.4113 41 20.9998C41 22.5884 40.8148 24.1336 40.4649 25.6152M16.3845 40.4649C17.8661 40.8148 19.4113 41 20.9998 41C22.5884 41 24.1336 40.8148 25.6152 40.4649M17.1537 14.846C17.1537 15.8661 17.5589 16.8444 18.2802 17.5657C19.0015 18.287 19.9798 18.6922 20.9998 18.6922C22.0199 18.6922 22.9982 18.287 23.7195 17.5657C24.4408 16.8444 24.846 15.8661 24.846 14.846C24.846 13.826 24.4408 12.8477 23.7195 12.1264C22.9982 11.4051 22.0199 10.9999 20.9998 10.9999C19.9798 10.9999 19.0015 11.4051 18.2802 12.1264C17.5589 12.8477 17.1537 13.826 17.1537 14.846ZM2.53845 7.1538C2.53845 8.37787 3.02471 9.5518 3.89025 10.4173C4.7558 11.2829 5.92973 11.7691 7.1538 11.7691C8.37787 11.7691 9.5518 11.2829 10.4173 10.4173C11.2829 9.5518 11.7691 8.37787 11.7691 7.1538C11.7691 5.92973 11.2829 4.7558 10.4173 3.89025C9.5518 3.02471 8.37787 2.53845 7.1538 2.53845C5.92973 2.53845 4.7558 3.02471 3.89025 3.89025C3.02471 4.7558 2.53845 5.92973 2.53845 7.1538ZM10.9999 30.9998H3.30767V38.692H10.9999V30.9998ZM38.692 3.30767H30.9998V10.9999H38.692V3.30767ZM30.2305 34.8459C30.2305 36.07 30.7168 37.2439 31.5823 38.1094C32.4479 38.975 33.6218 39.4612 34.8459 39.4612C36.07 39.4612 37.2439 38.975 38.1094 38.1094C38.975 37.2439 39.4612 36.07 39.4612 34.8459C39.4612 33.6218 38.975 32.4479 38.1094 31.5823C37.2439 30.7168 36.07 30.2305 34.8459 30.2305C33.6218 30.2305 32.4479 30.7168 31.5823 31.5823C30.7168 32.4479 30.2305 33.6218 30.2305 34.8459Z" stroke="#14315B" stroke-width="2" stroke-linecap="round" stroke-linejoin="round"/>
</svg>
