<svg width="14" height="15" viewBox="0 0 14 15" fill="none" xmlns="http://www.w3.org/2000/svg">
<g clip-path="url(#clip0_3591_61392)">
<path d="M7 10.7119C8.79493 10.7119 10.25 9.25684 10.25 7.46191C10.25 5.66698 8.79493 4.21191 7 4.21191C5.20507 4.21191 3.75 5.66698 3.75 7.46191C3.75 9.25684 5.20507 10.7119 7 10.7119Z" stroke="#14315B" stroke-linecap="round" stroke-linejoin="round"/>
<path d="M7 0.961914V1.96191" stroke="#14315B" stroke-linecap="round" stroke-linejoin="round"/>
<path d="M7 12.9619V13.9619" stroke="#14315B" stroke-linecap="round" stroke-linejoin="round"/>
<path d="M13.5 7.46191H12.5" stroke="#14315B" stroke-linecap="round" stroke-linejoin="round"/>
<path d="M1.5 7.46191H0.5" stroke="#14315B" stroke-linecap="round" stroke-linejoin="round"/>
<path d="M11.6001 2.86194L10.8901 3.57194" stroke="#14315B" stroke-linecap="round" stroke-linejoin="round"/>
<path d="M3.1099 11.3519L2.3999 12.0619" stroke="#14315B" stroke-linecap="round" stroke-linejoin="round"/>
<path d="M11.6001 12.0619L10.8901 11.3519" stroke="#14315B" stroke-linecap="round" stroke-linejoin="round"/>
<path d="M3.1099 3.57194L2.3999 2.86194" stroke="#14315B" stroke-linecap="round" stroke-linejoin="round"/>
</g>
<defs>
<clipPath id="clip0_3591_61392">
<rect width="14" height="14" fill="white" transform="translate(0 0.461914)"/>
</clipPath>
</defs>
</svg>
