<svg width="620" height="525" viewBox="0 0 620 525" fill="none" xmlns="http://www.w3.org/2000/svg">
<g filter="url(#filter0_d_37_1034)">
<rect x="20.5" y="10" width="165" height="71" rx="20" fill="white" shape-rendering="crispEdges"/>
<rect x="21" y="10.5" width="164" height="70" rx="19.5" stroke="#64A4FF" stroke-opacity="0.3" shape-rendering="crispEdges"/>
<path d="M93 33.3906C93.5809 33.2856 94.1793 33.2308 94.7905 33.2308C97.2204 33.2308 99.4478 34.0974 101.181 35.5385M99.9231 39.3846H94.5385C94.1304 39.3846 93.7391 39.2225 93.4506 38.934C93.1621 38.6456 93 38.2542 93 37.8462V25.5385C93 25.1304 93.1621 24.7391 93.4506 24.4506C93.7391 24.1621 94.1304 24 94.5385 24H106.846C107.254 24 107.646 24.1621 107.934 24.4506C108.222 24.7391 108.385 25.1304 108.385 25.5385V30.9231M101.846 30.9231C102.908 30.9231 103.769 30.0621 103.769 29C103.769 27.9379 102.908 27.0769 101.846 27.0769C100.784 27.0769 99.9231 27.9379 99.9231 29C99.9231 30.0621 100.784 30.9231 101.846 30.9231ZM103.783 39.6743C103.252 39.5803 103.252 38.8043 103.783 38.7103C105.709 38.3696 107.241 36.8779 107.659 34.936L107.691 34.7871C107.806 34.2529 108.554 34.2495 108.674 34.7828L108.713 34.9562C109.146 36.8889 110.679 38.368 112.599 38.7079C113.134 38.8023 113.134 39.5823 112.599 39.6768C110.679 40.0166 109.146 41.4957 108.713 43.4285L108.674 43.6019C108.554 44.1351 107.806 44.1317 107.691 43.5976L107.659 43.4486C107.241 41.5068 105.709 40.0151 103.783 39.6743Z" stroke="#1877F2" stroke-width="1.5" stroke-linecap="round" stroke-linejoin="round"/>
<path d="M56.2512 63V53.19H62.1762V54.66H57.9912V57.435H61.5612V58.905H57.9912V63H56.2512ZM66.2283 63.18C65.6183 63.18 65.0483 63.03 64.5183 62.73C63.9883 62.42 63.5583 61.98 63.2283 61.41C62.8983 60.83 62.7333 60.135 62.7333 59.325C62.7333 58.505 62.8983 57.81 63.2283 57.24C63.5583 56.66 63.9883 56.22 64.5183 55.92C65.0483 55.61 65.6183 55.455 66.2283 55.455C66.8483 55.455 67.4233 55.61 67.9533 55.92C68.4833 56.22 68.9133 56.66 69.2433 57.24C69.5733 57.81 69.7383 58.505 69.7383 59.325C69.7383 60.135 69.5733 60.83 69.2433 61.41C68.9133 61.98 68.4833 62.42 67.9533 62.73C67.4233 63.03 66.8483 63.18 66.2283 63.18ZM66.2283 61.77C66.7683 61.77 67.1933 61.545 67.5033 61.095C67.8133 60.645 67.9683 60.055 67.9683 59.325C67.9683 58.585 67.8133 57.99 67.5033 57.54C67.1933 57.09 66.7683 56.865 66.2283 56.865C65.6883 56.865 65.2633 57.09 64.9533 57.54C64.6533 57.99 64.5033 58.585 64.5033 59.325C64.5033 60.055 64.6533 60.645 64.9533 61.095C65.2633 61.545 65.6883 61.77 66.2283 61.77ZM73.4038 63.18C72.5538 63.18 71.9488 62.935 71.5888 62.445C71.2388 61.945 71.0638 61.3 71.0638 60.51V57H70.0138V55.71L71.1538 55.635L71.3638 53.625H72.8038V55.635H74.6788V57H72.8038V60.51C72.8038 61.37 73.1488 61.8 73.8388 61.8C73.9688 61.8 74.1038 61.785 74.2438 61.755C74.3838 61.715 74.5038 61.675 74.6038 61.635L74.9038 62.91C74.7038 62.98 74.4738 63.04 74.2138 63.09C73.9638 63.15 73.6938 63.18 73.4038 63.18ZM78.7093 63.18C78.0993 63.18 77.5293 63.03 76.9993 62.73C76.4693 62.42 76.0393 61.98 75.7093 61.41C75.3793 60.83 75.2143 60.135 75.2143 59.325C75.2143 58.505 75.3793 57.81 75.7093 57.24C76.0393 56.66 76.4693 56.22 76.9993 55.92C77.5293 55.61 78.0993 55.455 78.7093 55.455C79.3293 55.455 79.9043 55.61 80.4343 55.92C80.9643 56.22 81.3943 56.66 81.7243 57.24C82.0543 57.81 82.2193 58.505 82.2193 59.325C82.2193 60.135 82.0543 60.83 81.7243 61.41C81.3943 61.98 80.9643 62.42 80.4343 62.73C79.9043 63.03 79.3293 63.18 78.7093 63.18ZM78.7093 61.77C79.2493 61.77 79.6743 61.545 79.9843 61.095C80.2943 60.645 80.4493 60.055 80.4493 59.325C80.4493 58.585 80.2943 57.99 79.9843 57.54C79.6743 57.09 79.2493 56.865 78.7093 56.865C78.1693 56.865 77.7443 57.09 77.4343 57.54C77.1343 57.99 76.9843 58.585 76.9843 59.325C76.9843 60.055 77.1343 60.645 77.4343 61.095C77.7443 61.545 78.1693 61.77 78.7093 61.77ZM86.3297 63V52.41H88.0547V55.14L87.9947 56.565C88.3047 56.275 88.6497 56.02 89.0297 55.8C89.4097 55.57 89.8497 55.455 90.3497 55.455C91.1397 55.455 91.7147 55.71 92.0747 56.22C92.4347 56.73 92.6147 57.45 92.6147 58.38V63H90.8897V58.605C90.8897 57.995 90.7997 57.565 90.6197 57.315C90.4397 57.065 90.1447 56.94 89.7347 56.94C89.4147 56.94 89.1297 57.02 88.8797 57.18C88.6397 57.33 88.3647 57.555 88.0547 57.855V63H86.3297ZM97.4089 63.18C96.7989 63.18 96.2289 63.03 95.6989 62.73C95.1689 62.42 94.7389 61.98 94.4089 61.41C94.0789 60.83 93.9139 60.135 93.9139 59.325C93.9139 58.505 94.0789 57.81 94.4089 57.24C94.7389 56.66 95.1689 56.22 95.6989 55.92C96.2289 55.61 96.7989 55.455 97.4089 55.455C98.0289 55.455 98.6039 55.61 99.1339 55.92C99.6639 56.22 100.094 56.66 100.424 57.24C100.754 57.81 100.919 58.505 100.919 59.325C100.919 60.135 100.754 60.83 100.424 61.41C100.094 61.98 99.6639 62.42 99.1339 62.73C98.6039 63.03 98.0289 63.18 97.4089 63.18ZM97.4089 61.77C97.9489 61.77 98.3739 61.545 98.6839 61.095C98.9939 60.645 99.1489 60.055 99.1489 59.325C99.1489 58.585 98.9939 57.99 98.6839 57.54C98.3739 57.09 97.9489 56.865 97.4089 56.865C96.8689 56.865 96.4439 57.09 96.1339 57.54C95.8339 57.99 95.6839 58.585 95.6839 59.325C95.6839 60.055 95.8339 60.645 96.1339 61.095C96.4439 61.545 96.8689 61.77 97.4089 61.77ZM105.401 63.18C104.731 63.18 104.126 63.03 103.586 62.73C103.056 62.42 102.631 61.98 102.311 61.41C102.001 60.83 101.846 60.135 101.846 59.325C101.846 58.505 102.016 57.81 102.356 57.24C102.696 56.66 103.146 56.22 103.706 55.92C104.276 55.61 104.886 55.455 105.536 55.455C106.006 55.455 106.416 55.535 106.766 55.695C107.116 55.855 107.426 56.05 107.696 56.28L106.856 57.405C106.666 57.235 106.471 57.105 106.271 57.015C106.071 56.915 105.856 56.865 105.626 56.865C105.036 56.865 104.551 57.09 104.171 57.54C103.801 57.99 103.616 58.585 103.616 59.325C103.616 60.055 103.796 60.645 104.156 61.095C104.526 61.545 105.001 61.77 105.581 61.77C105.871 61.77 106.141 61.71 106.391 61.59C106.651 61.46 106.886 61.31 107.096 61.14L107.801 62.28C107.461 62.58 107.081 62.805 106.661 62.955C106.241 63.105 105.821 63.18 105.401 63.18ZM108.955 63V52.41H110.68V55.14L110.62 56.565C110.93 56.275 111.275 56.02 111.655 55.8C112.035 55.57 112.475 55.455 112.975 55.455C113.765 55.455 114.34 55.71 114.7 56.22C115.06 56.73 115.24 57.45 115.24 58.38V63H113.515V58.605C113.515 57.995 113.425 57.565 113.245 57.315C113.065 57.065 112.77 56.94 112.36 56.94C112.04 56.94 111.755 57.02 111.505 57.18C111.265 57.33 110.99 57.555 110.68 57.855V63H108.955ZM118.699 63.18C118.089 63.18 117.654 62.995 117.394 62.625C117.144 62.255 117.019 61.75 117.019 61.11V52.41H118.744V61.2C118.744 61.41 118.784 61.56 118.864 61.65C118.944 61.73 119.029 61.77 119.119 61.77C119.159 61.77 119.194 61.77 119.224 61.77C119.264 61.76 119.319 61.75 119.389 61.74L119.614 63.03C119.514 63.07 119.384 63.105 119.224 63.135C119.074 63.165 118.899 63.18 118.699 63.18ZM122.577 63.18C121.937 63.18 121.412 62.98 121.002 62.58C120.602 62.18 120.402 61.66 120.402 61.02C120.402 60.23 120.747 59.62 121.437 59.19C122.127 58.75 123.227 58.45 124.737 58.29C124.727 57.9 124.622 57.565 124.422 57.285C124.232 56.995 123.887 56.85 123.387 56.85C123.027 56.85 122.672 56.92 122.322 57.06C121.982 57.2 121.647 57.37 121.317 57.57L120.687 56.415C121.097 56.155 121.557 55.93 122.067 55.74C122.587 55.55 123.137 55.455 123.717 55.455C124.637 55.455 125.322 55.73 125.772 56.28C126.232 56.82 126.462 57.605 126.462 58.635V63H125.037L124.917 62.19H124.857C124.527 62.47 124.172 62.705 123.792 62.895C123.422 63.085 123.017 63.18 122.577 63.18ZM123.132 61.83C123.432 61.83 123.702 61.76 123.942 61.62C124.192 61.47 124.457 61.27 124.737 61.02V59.37C123.737 59.5 123.042 59.695 122.652 59.955C122.262 60.205 122.067 60.515 122.067 60.885C122.067 61.215 122.167 61.455 122.367 61.605C122.567 61.755 122.822 61.83 123.132 61.83ZM130.806 63.18C129.886 63.18 129.151 62.84 128.601 62.16C128.051 61.48 127.776 60.535 127.776 59.325C127.776 58.525 127.921 57.835 128.211 57.255C128.511 56.675 128.901 56.23 129.381 55.92C129.861 55.61 130.366 55.455 130.896 55.455C131.316 55.455 131.671 55.53 131.961 55.68C132.261 55.82 132.551 56.015 132.831 56.265L132.771 55.08V52.41H134.496V63H133.071L132.951 62.205H132.891C132.621 62.475 132.306 62.705 131.946 62.895C131.586 63.085 131.206 63.18 130.806 63.18ZM131.226 61.755C131.776 61.755 132.291 61.48 132.771 60.93V57.495C132.521 57.265 132.271 57.105 132.021 57.015C131.771 56.925 131.521 56.88 131.271 56.88C130.801 56.88 130.396 57.095 130.056 57.525C129.726 57.945 129.561 58.54 129.561 59.31C129.561 60.1 129.706 60.705 129.996 61.125C130.286 61.545 130.696 61.755 131.226 61.755ZM139.543 63.18C138.863 63.18 138.248 63.03 137.698 62.73C137.148 62.42 136.713 61.98 136.393 61.41C136.073 60.83 135.913 60.135 135.913 59.325C135.913 58.525 136.073 57.835 136.393 57.255C136.723 56.675 137.148 56.23 137.668 55.92C138.188 55.61 138.733 55.455 139.303 55.455C139.973 55.455 140.533 55.605 140.983 55.905C141.433 56.195 141.773 56.605 142.003 57.135C142.233 57.655 142.348 58.26 142.348 58.95C142.348 59.31 142.323 59.59 142.273 59.79H137.593C137.673 60.44 137.908 60.945 138.298 61.305C138.688 61.665 139.178 61.845 139.768 61.845C140.088 61.845 140.383 61.8 140.653 61.71C140.933 61.61 141.208 61.475 141.478 61.305L142.063 62.385C141.713 62.615 141.323 62.805 140.893 62.955C140.463 63.105 140.013 63.18 139.543 63.18ZM137.578 58.62H140.848C140.848 58.05 140.723 57.605 140.473 57.285C140.223 56.955 139.848 56.79 139.348 56.79C138.918 56.79 138.533 56.95 138.193 57.27C137.863 57.58 137.658 58.03 137.578 58.62ZM143.695 63V55.635H145.12L145.24 56.625H145.3C145.63 56.305 145.99 56.03 146.38 55.8C146.77 55.57 147.215 55.455 147.715 55.455C148.505 55.455 149.08 55.71 149.44 56.22C149.8 56.73 149.98 57.45 149.98 58.38V63H148.255V58.605C148.255 57.995 148.165 57.565 147.985 57.315C147.805 57.065 147.51 56.94 147.1 56.94C146.78 56.94 146.495 57.02 146.245 57.18C146.005 57.33 145.73 57.555 145.42 57.855V63H143.695Z" fill="#1877F2"/>
</g>
<path d="M197.496 62.156C196.968 62.156 196.474 62.026 196.014 61.766C195.555 61.4973 195.182 61.116 194.896 60.622C194.61 60.1193 194.467 59.517 194.467 58.815C194.467 58.1043 194.61 57.502 194.896 57.008C195.182 56.5053 195.555 56.124 196.014 55.864C196.474 55.5953 196.968 55.461 197.496 55.461C198.034 55.461 198.532 55.5953 198.991 55.864C199.451 56.124 199.823 56.5053 200.109 57.008C200.395 57.502 200.538 58.1043 200.538 58.815C200.538 59.517 200.395 60.1193 200.109 60.622C199.823 61.116 199.451 61.4973 198.991 61.766C198.532 62.026 198.034 62.156 197.496 62.156ZM197.496 60.934C197.964 60.934 198.333 60.739 198.601 60.349C198.87 59.959 199.004 59.4477 199.004 58.815C199.004 58.1737 198.87 57.658 198.601 57.268C198.333 56.878 197.964 56.683 197.496 56.683C197.028 56.683 196.66 56.878 196.391 57.268C196.131 57.658 196.001 58.1737 196.001 58.815C196.001 59.4477 196.131 59.959 196.391 60.349C196.66 60.739 197.028 60.934 197.496 60.934ZM203.994 62.156C203.197 62.156 202.56 61.8613 202.083 61.272C201.607 60.6827 201.368 59.8637 201.368 58.815C201.368 58.1217 201.494 57.5237 201.745 57.021C202.005 56.5183 202.343 56.1327 202.759 55.864C203.175 55.5953 203.613 55.461 204.072 55.461C204.436 55.461 204.744 55.526 204.995 55.656C205.255 55.7773 205.507 55.9463 205.749 56.163L205.697 55.136V52.822H207.192V62H205.957L205.853 61.311H205.801C205.567 61.545 205.294 61.7443 204.982 61.909C204.67 62.0737 204.341 62.156 203.994 62.156ZM204.358 60.921C204.835 60.921 205.281 60.6827 205.697 60.206V57.229C205.481 57.0297 205.264 56.891 205.047 56.813C204.831 56.735 204.614 56.696 204.397 56.696C203.99 56.696 203.639 56.8823 203.344 57.255C203.058 57.619 202.915 58.1347 202.915 58.802C202.915 59.4867 203.041 60.011 203.292 60.375C203.544 60.739 203.899 60.921 204.358 60.921ZM211.566 62.156C210.977 62.156 210.444 62.026 209.967 61.766C209.49 61.4973 209.113 61.116 208.836 60.622C208.559 60.1193 208.42 59.517 208.42 58.815C208.42 58.1217 208.559 57.5237 208.836 57.021C209.122 56.5183 209.49 56.1327 209.941 55.864C210.392 55.5953 210.864 55.461 211.358 55.461C211.939 55.461 212.424 55.591 212.814 55.851C213.204 56.1023 213.499 56.4577 213.698 56.917C213.897 57.3677 213.997 57.892 213.997 58.49C213.997 58.802 213.975 59.0447 213.932 59.218H209.876C209.945 59.7813 210.149 60.219 210.487 60.531C210.825 60.843 211.25 60.999 211.761 60.999C212.038 60.999 212.294 60.96 212.528 60.882C212.771 60.7953 213.009 60.6783 213.243 60.531L213.75 61.467C213.447 61.6663 213.109 61.831 212.736 61.961C212.363 62.091 211.973 62.156 211.566 62.156ZM209.863 58.204H212.697C212.697 57.71 212.589 57.3243 212.372 57.047C212.155 56.761 211.83 56.618 211.397 56.618C211.024 56.618 210.691 56.7567 210.396 57.034C210.11 57.3027 209.932 57.6927 209.863 58.204ZM215.165 62V55.617H216.4L216.504 56.748H216.556C216.781 56.332 217.054 56.0157 217.375 55.799C217.696 55.5737 218.025 55.461 218.363 55.461C218.666 55.461 218.909 55.5043 219.091 55.591L218.831 56.891C218.718 56.8563 218.614 56.8303 218.519 56.813C218.424 56.7957 218.307 56.787 218.168 56.787C217.917 56.787 217.652 56.8867 217.375 57.086C217.098 57.2767 216.859 57.6147 216.66 58.1V62H215.165Z" fill="#1877F2"/>
<g filter="url(#filter1_d_37_1034)">
<rect x="227.5" y="10" width="165" height="71" rx="20" fill="white" shape-rendering="crispEdges"/>
<rect x="228" y="10.5" width="164" height="70" rx="19.5" stroke="#64A4FF" stroke-opacity="0.3" shape-rendering="crispEdges"/>
<path d="M305.607 42.986C306.933 43.6354 308.424 44 310 44C315.523 44 320 39.5229 320 34C320 28.4772 315.523 24 310 24C304.477 24 300 28.4772 300 34C300 36.0502 300.617 37.9562 301.675 39.5426M305.607 42.986L300 44L301.675 39.5426M305.607 42.986L305.615 42.9846M301.675 39.5426L301.677 39.5385M310 29.3846V38.6154M305.385 34H314.615" stroke="#1877F2" stroke-width="1.5" stroke-linecap="round" stroke-linejoin="round"/>
<path d="M265.014 63.18C264.134 63.18 263.344 62.985 262.644 62.595C261.944 62.205 261.394 61.635 260.994 60.885C260.594 60.125 260.394 59.205 260.394 58.125C260.394 57.055 260.599 56.14 261.009 55.38C261.419 54.61 261.974 54.025 262.674 53.625C263.374 53.215 264.159 53.01 265.029 53.01C265.729 53.01 266.319 53.14 266.799 53.4C267.289 53.65 267.689 53.935 267.999 54.255L267.069 55.38C266.819 55.14 266.539 54.94 266.229 54.78C265.929 54.61 265.549 54.525 265.089 54.525C264.219 54.525 263.514 54.845 262.974 55.485C262.444 56.115 262.179 56.98 262.179 58.08C262.179 59.2 262.434 60.08 262.944 60.72C263.454 61.35 264.199 61.665 265.179 61.665C265.459 61.665 265.724 61.63 265.974 61.56C266.224 61.48 266.429 61.37 266.589 61.23V59.115H264.729V57.69H268.149V62.01C267.819 62.34 267.379 62.62 266.829 62.85C266.289 63.07 265.684 63.18 265.014 63.18ZM273.023 63.18C272.343 63.18 271.728 63.03 271.178 62.73C270.628 62.42 270.193 61.98 269.873 61.41C269.553 60.83 269.393 60.135 269.393 59.325C269.393 58.525 269.553 57.835 269.873 57.255C270.203 56.675 270.628 56.23 271.148 55.92C271.668 55.61 272.213 55.455 272.783 55.455C273.453 55.455 274.013 55.605 274.463 55.905C274.913 56.195 275.253 56.605 275.483 57.135C275.713 57.655 275.828 58.26 275.828 58.95C275.828 59.31 275.803 59.59 275.753 59.79H271.073C271.153 60.44 271.388 60.945 271.778 61.305C272.168 61.665 272.658 61.845 273.248 61.845C273.568 61.845 273.863 61.8 274.133 61.71C274.413 61.61 274.688 61.475 274.958 61.305L275.543 62.385C275.193 62.615 274.803 62.805 274.373 62.955C273.943 63.105 273.493 63.18 273.023 63.18ZM271.058 58.62H274.328C274.328 58.05 274.203 57.605 273.953 57.285C273.703 56.955 273.328 56.79 272.828 56.79C272.398 56.79 272.013 56.95 271.673 57.27C271.343 57.58 271.138 58.03 271.058 58.62ZM279.755 63.18C278.835 63.18 278.1 62.84 277.55 62.16C277 61.48 276.725 60.535 276.725 59.325C276.725 58.525 276.87 57.835 277.16 57.255C277.46 56.675 277.85 56.23 278.33 55.92C278.81 55.61 279.315 55.455 279.845 55.455C280.265 55.455 280.62 55.53 280.91 55.68C281.21 55.82 281.5 56.015 281.78 56.265L281.72 55.08V52.41H283.445V63H282.02L281.9 62.205H281.84C281.57 62.475 281.255 62.705 280.895 62.895C280.535 63.085 280.155 63.18 279.755 63.18ZM280.175 61.755C280.725 61.755 281.24 61.48 281.72 60.93V57.495C281.47 57.265 281.22 57.105 280.97 57.015C280.72 56.925 280.47 56.88 280.22 56.88C279.75 56.88 279.345 57.095 279.005 57.525C278.675 57.945 278.51 58.54 278.51 59.31C278.51 60.1 278.655 60.705 278.945 61.125C279.235 61.545 279.645 61.755 280.175 61.755ZM287.127 63.18C286.487 63.18 285.962 62.98 285.552 62.58C285.152 62.18 284.952 61.66 284.952 61.02C284.952 60.23 285.297 59.62 285.987 59.19C286.677 58.75 287.777 58.45 289.287 58.29C289.277 57.9 289.172 57.565 288.972 57.285C288.782 56.995 288.437 56.85 287.937 56.85C287.577 56.85 287.222 56.92 286.872 57.06C286.532 57.2 286.197 57.37 285.867 57.57L285.237 56.415C285.647 56.155 286.107 55.93 286.617 55.74C287.137 55.55 287.687 55.455 288.267 55.455C289.187 55.455 289.872 55.73 290.322 56.28C290.782 56.82 291.012 57.605 291.012 58.635V63H289.587L289.467 62.19H289.407C289.077 62.47 288.722 62.705 288.342 62.895C287.972 63.085 287.567 63.18 287.127 63.18ZM287.682 61.83C287.982 61.83 288.252 61.76 288.492 61.62C288.742 61.47 289.007 61.27 289.287 61.02V59.37C288.287 59.5 287.592 59.695 287.202 59.955C286.812 60.205 286.617 60.515 286.617 60.885C286.617 61.215 286.717 61.455 286.917 61.605C287.117 61.755 287.372 61.83 287.682 61.83ZM292.776 63V55.635H294.201L294.321 56.625H294.381C294.711 56.305 295.071 56.03 295.461 55.8C295.851 55.57 296.296 55.455 296.796 55.455C297.586 55.455 298.161 55.71 298.521 56.22C298.881 56.73 299.061 57.45 299.061 58.38V63H297.336V58.605C297.336 57.995 297.246 57.565 297.066 57.315C296.886 57.065 296.591 56.94 296.181 56.94C295.861 56.94 295.576 57.02 295.326 57.18C295.086 57.33 294.811 57.555 294.501 57.855V63H292.776ZM300.87 63V52.41H302.565V59.025H302.61L305.34 55.635H307.23L304.71 58.635L307.485 63H305.61L303.72 59.805L302.565 61.125V63H300.87ZM311.205 63.18C310.525 63.18 309.91 63.03 309.36 62.73C308.81 62.42 308.375 61.98 308.055 61.41C307.735 60.83 307.575 60.135 307.575 59.325C307.575 58.525 307.735 57.835 308.055 57.255C308.385 56.675 308.81 56.23 309.33 55.92C309.85 55.61 310.395 55.455 310.965 55.455C311.635 55.455 312.195 55.605 312.645 55.905C313.095 56.195 313.435 56.605 313.665 57.135C313.895 57.655 314.01 58.26 314.01 58.95C314.01 59.31 313.985 59.59 313.935 59.79H309.255C309.335 60.44 309.57 60.945 309.96 61.305C310.35 61.665 310.84 61.845 311.43 61.845C311.75 61.845 312.045 61.8 312.315 61.71C312.595 61.61 312.87 61.475 313.14 61.305L313.725 62.385C313.375 62.615 312.985 62.805 312.555 62.955C312.125 63.105 311.675 63.18 311.205 63.18ZM309.24 58.62H312.51C312.51 58.05 312.385 57.605 312.135 57.285C311.885 56.955 311.51 56.79 311.01 56.79C310.58 56.79 310.195 56.95 309.855 57.27C309.525 57.58 309.32 58.03 309.24 58.62ZM315.358 63V55.635H316.783L316.903 56.625H316.963C317.293 56.305 317.653 56.03 318.043 55.8C318.433 55.57 318.878 55.455 319.378 55.455C320.168 55.455 320.743 55.71 321.103 56.22C321.463 56.73 321.643 57.45 321.643 58.38V63H319.918V58.605C319.918 57.995 319.828 57.565 319.648 57.315C319.468 57.065 319.173 56.94 318.763 56.94C318.443 56.94 318.158 57.02 317.908 57.18C317.668 57.33 317.393 57.555 317.083 57.855V63H315.358ZM328.749 63.18C327.899 63.18 327.294 62.935 326.934 62.445C326.584 61.945 326.409 61.3 326.409 60.51V57H325.359V55.71L326.499 55.635L326.709 53.625H328.149V55.635H330.024V57H328.149V60.51C328.149 61.37 328.494 61.8 329.184 61.8C329.314 61.8 329.449 61.785 329.589 61.755C329.729 61.715 329.849 61.675 329.949 61.635L330.249 62.91C330.049 62.98 329.819 63.04 329.559 63.09C329.309 63.15 329.039 63.18 328.749 63.18ZM334.19 63.18C333.51 63.18 332.895 63.03 332.345 62.73C331.795 62.42 331.36 61.98 331.04 61.41C330.72 60.83 330.56 60.135 330.56 59.325C330.56 58.525 330.72 57.835 331.04 57.255C331.37 56.675 331.795 56.23 332.315 55.92C332.835 55.61 333.38 55.455 333.95 55.455C334.62 55.455 335.18 55.605 335.63 55.905C336.08 56.195 336.42 56.605 336.65 57.135C336.88 57.655 336.995 58.26 336.995 58.95C336.995 59.31 336.97 59.59 336.92 59.79H332.24C332.32 60.44 332.555 60.945 332.945 61.305C333.335 61.665 333.825 61.845 334.415 61.845C334.735 61.845 335.03 61.8 335.3 61.71C335.58 61.61 335.855 61.475 336.125 61.305L336.71 62.385C336.36 62.615 335.97 62.805 335.54 62.955C335.11 63.105 334.66 63.18 334.19 63.18ZM332.225 58.62H335.495C335.495 58.05 335.37 57.605 335.12 57.285C334.87 56.955 334.495 56.79 333.995 56.79C333.565 56.79 333.18 56.95 332.84 57.27C332.51 57.58 332.305 58.03 332.225 58.62ZM338.342 63V55.635H340.067V63H338.342ZM339.212 54.345C338.902 54.345 338.652 54.255 338.462 54.075C338.272 53.895 338.177 53.655 338.177 53.355C338.177 53.065 338.272 52.83 338.462 52.65C338.652 52.47 338.902 52.38 339.212 52.38C339.522 52.38 339.772 52.47 339.962 52.65C340.152 52.83 340.247 53.065 340.247 53.355C340.247 53.655 340.152 53.895 339.962 54.075C339.772 54.255 339.522 54.345 339.212 54.345ZM343.648 63.18C343.038 63.18 342.603 62.995 342.343 62.625C342.093 62.255 341.968 61.75 341.968 61.11V52.41H343.693V61.2C343.693 61.41 343.733 61.56 343.813 61.65C343.893 61.73 343.978 61.77 344.068 61.77C344.108 61.77 344.143 61.77 344.173 61.77C344.213 61.76 344.268 61.75 344.338 61.74L344.563 63.03C344.463 63.07 344.333 63.105 344.173 63.135C344.023 63.165 343.848 63.18 343.648 63.18ZM348.89 63.18C348.21 63.18 347.595 63.03 347.045 62.73C346.495 62.42 346.06 61.98 345.74 61.41C345.42 60.83 345.26 60.135 345.26 59.325C345.26 58.525 345.42 57.835 345.74 57.255C346.07 56.675 346.495 56.23 347.015 55.92C347.535 55.61 348.08 55.455 348.65 55.455C349.32 55.455 349.88 55.605 350.33 55.905C350.78 56.195 351.12 56.605 351.35 57.135C351.58 57.655 351.695 58.26 351.695 58.95C351.695 59.31 351.67 59.59 351.62 59.79H346.94C347.02 60.44 347.255 60.945 347.645 61.305C348.035 61.665 348.525 61.845 349.115 61.845C349.435 61.845 349.73 61.8 350 61.71C350.28 61.61 350.555 61.475 350.825 61.305L351.41 62.385C351.06 62.615 350.67 62.805 350.24 62.955C349.81 63.105 349.36 63.18 348.89 63.18ZM346.925 58.62H350.195C350.195 58.05 350.07 57.605 349.82 57.285C349.57 56.955 349.195 56.79 348.695 56.79C348.265 56.79 347.88 56.95 347.54 57.27C347.21 57.58 347.005 58.03 346.925 58.62ZM353.043 63V55.635H354.468L354.588 56.625H354.648C354.978 56.305 355.338 56.03 355.728 55.8C356.118 55.57 356.563 55.455 357.063 55.455C357.853 55.455 358.428 55.71 358.788 56.22C359.148 56.73 359.328 57.45 359.328 58.38V63H357.603V58.605C357.603 57.995 357.513 57.565 357.333 57.315C357.153 57.065 356.858 56.94 356.448 56.94C356.128 56.94 355.843 57.02 355.593 57.18C355.353 57.33 355.078 57.555 354.768 57.855V63H353.043Z" fill="#1877F2"/>
</g>
<path d="M404.496 62.156C403.968 62.156 403.474 62.026 403.014 61.766C402.555 61.4973 402.182 61.116 401.896 60.622C401.61 60.1193 401.467 59.517 401.467 58.815C401.467 58.1043 401.61 57.502 401.896 57.008C402.182 56.5053 402.555 56.124 403.014 55.864C403.474 55.5953 403.968 55.461 404.496 55.461C405.034 55.461 405.532 55.5953 405.991 55.864C406.451 56.124 406.823 56.5053 407.109 57.008C407.395 57.502 407.538 58.1043 407.538 58.815C407.538 59.517 407.395 60.1193 407.109 60.622C406.823 61.116 406.451 61.4973 405.991 61.766C405.532 62.026 405.034 62.156 404.496 62.156ZM404.496 60.934C404.964 60.934 405.333 60.739 405.601 60.349C405.87 59.959 406.004 59.4477 406.004 58.815C406.004 58.1737 405.87 57.658 405.601 57.268C405.333 56.878 404.964 56.683 404.496 56.683C404.028 56.683 403.66 56.878 403.391 57.268C403.131 57.658 403.001 58.1737 403.001 58.815C403.001 59.4477 403.131 59.959 403.391 60.349C403.66 60.739 404.028 60.934 404.496 60.934ZM410.994 62.156C410.197 62.156 409.56 61.8613 409.083 61.272C408.607 60.6827 408.368 59.8637 408.368 58.815C408.368 58.1217 408.494 57.5237 408.745 57.021C409.005 56.5183 409.343 56.1327 409.759 55.864C410.175 55.5953 410.613 55.461 411.072 55.461C411.436 55.461 411.744 55.526 411.995 55.656C412.255 55.7773 412.507 55.9463 412.749 56.163L412.697 55.136V52.822H414.192V62H412.957L412.853 61.311H412.801C412.567 61.545 412.294 61.7443 411.982 61.909C411.67 62.0737 411.341 62.156 410.994 62.156ZM411.358 60.921C411.835 60.921 412.281 60.6827 412.697 60.206V57.229C412.481 57.0297 412.264 56.891 412.047 56.813C411.831 56.735 411.614 56.696 411.397 56.696C410.99 56.696 410.639 56.8823 410.344 57.255C410.058 57.619 409.915 58.1347 409.915 58.802C409.915 59.4867 410.041 60.011 410.292 60.375C410.544 60.739 410.899 60.921 411.358 60.921ZM418.566 62.156C417.977 62.156 417.444 62.026 416.967 61.766C416.49 61.4973 416.113 61.116 415.836 60.622C415.559 60.1193 415.42 59.517 415.42 58.815C415.42 58.1217 415.559 57.5237 415.836 57.021C416.122 56.5183 416.49 56.1327 416.941 55.864C417.392 55.5953 417.864 55.461 418.358 55.461C418.939 55.461 419.424 55.591 419.814 55.851C420.204 56.1023 420.499 56.4577 420.698 56.917C420.897 57.3677 420.997 57.892 420.997 58.49C420.997 58.802 420.975 59.0447 420.932 59.218H416.876C416.945 59.7813 417.149 60.219 417.487 60.531C417.825 60.843 418.25 60.999 418.761 60.999C419.038 60.999 419.294 60.96 419.528 60.882C419.771 60.7953 420.009 60.6783 420.243 60.531L420.75 61.467C420.447 61.6663 420.109 61.831 419.736 61.961C419.363 62.091 418.973 62.156 418.566 62.156ZM416.863 58.204H419.697C419.697 57.71 419.589 57.3243 419.372 57.047C419.155 56.761 418.83 56.618 418.397 56.618C418.024 56.618 417.691 56.7567 417.396 57.034C417.11 57.3027 416.932 57.6927 416.863 58.204ZM422.165 62V55.617H423.4L423.504 56.748H423.556C423.781 56.332 424.054 56.0157 424.375 55.799C424.696 55.5737 425.025 55.461 425.363 55.461C425.666 55.461 425.909 55.5043 426.091 55.591L425.831 56.891C425.718 56.8563 425.614 56.8303 425.519 56.813C425.424 56.7957 425.307 56.787 425.168 56.787C424.917 56.787 424.652 56.8867 424.375 57.086C424.098 57.2767 423.859 57.6147 423.66 58.1V62H422.165Z" fill="#1877F2"/>
<g filter="url(#filter2_d_37_1034)">
<rect x="434.5" y="10" width="165" height="71" rx="20" fill="white" shape-rendering="crispEdges"/>
<rect x="435" y="10.5" width="164" height="70" rx="19.5" stroke="#64A4FF" stroke-opacity="0.3" shape-rendering="crispEdges"/>
<path d="M507 44C507.01 43.0432 507.262 42.1045 507.733 41.2717C508.726 39.5165 510.633 38.402 512.649 38.3977C514.665 38.402 516.572 39.5165 517.565 41.2717C518.036 42.1045 518.288 43.0432 518.298 44M520.254 25.2624V24M524.631 26.8953L525.524 26.0027M515.945 26.8953L515.052 26.0027M513.509 30.9166H514.772M525.738 30.9166H527M510.52 30.9432C510.064 31.4499 509.787 32.1202 509.787 32.8553C509.787 34.4351 511.068 35.7158 512.648 35.7158C513.952 35.7158 515.053 34.8427 515.397 33.649M523.384 30.9167C523.391 29.182 521.922 27.7386 520.188 27.7746C518.497 27.8098 517.117 29.2393 517.122 30.9167C517.122 30.9599 517.123 31.0032 517.125 31.0467C517.176 32.1621 517.858 33.2101 518.857 33.7078V35.2464C518.86 35.3374 518.897 35.4238 518.963 35.4874C519.028 35.5509 519.115 35.5864 519.206 35.5864H521.3C521.391 35.5864 521.478 35.5509 521.543 35.4874C521.608 35.4238 521.646 35.3374 521.649 35.2464V33.6809C522.679 33.1677 523.37 32.0683 523.384 30.9167Z" stroke="#1877F2" stroke-width="1.5" stroke-linecap="round" stroke-linejoin="round"/>
<path d="M459.254 63L456.194 53.19H458.039L459.419 58.125C459.579 58.675 459.724 59.205 459.854 59.715C459.984 60.225 460.129 60.76 460.289 61.32H460.349C460.519 60.76 460.664 60.225 460.784 59.715C460.914 59.205 461.054 58.675 461.204 58.125L462.569 53.19H464.354L461.309 63H459.254ZM467.857 63.18C467.247 63.18 466.677 63.03 466.147 62.73C465.617 62.42 465.187 61.98 464.857 61.41C464.527 60.83 464.362 60.135 464.362 59.325C464.362 58.505 464.527 57.81 464.857 57.24C465.187 56.66 465.617 56.22 466.147 55.92C466.677 55.61 467.247 55.455 467.857 55.455C468.477 55.455 469.052 55.61 469.582 55.92C470.112 56.22 470.542 56.66 470.872 57.24C471.202 57.81 471.367 58.505 471.367 59.325C471.367 60.135 471.202 60.83 470.872 61.41C470.542 61.98 470.112 62.42 469.582 62.73C469.052 63.03 468.477 63.18 467.857 63.18ZM467.857 61.77C468.397 61.77 468.822 61.545 469.132 61.095C469.442 60.645 469.597 60.055 469.597 59.325C469.597 58.585 469.442 57.99 469.132 57.54C468.822 57.09 468.397 56.865 467.857 56.865C467.317 56.865 466.892 57.09 466.582 57.54C466.282 57.99 466.132 58.585 466.132 59.325C466.132 60.055 466.282 60.645 466.582 61.095C466.892 61.545 467.317 61.77 467.857 61.77ZM472.774 63V55.635H474.199L474.319 56.94H474.379C474.639 56.46 474.954 56.095 475.324 55.845C475.694 55.585 476.074 55.455 476.464 55.455C476.814 55.455 477.094 55.505 477.304 55.605L477.004 57.105C476.874 57.065 476.754 57.035 476.644 57.015C476.534 56.995 476.399 56.985 476.239 56.985C475.949 56.985 475.644 57.1 475.324 57.33C475.004 57.55 474.729 57.94 474.499 58.5V63H472.774ZM480.037 63.18C479.537 63.18 479.037 63.085 478.537 62.895C478.037 62.695 477.607 62.45 477.247 62.16L478.057 61.05C478.387 61.3 478.717 61.5 479.047 61.65C479.377 61.8 479.727 61.875 480.097 61.875C480.497 61.875 480.792 61.79 480.982 61.62C481.172 61.45 481.267 61.24 481.267 60.99C481.267 60.78 481.187 60.61 481.027 60.48C480.877 60.34 480.682 60.22 480.442 60.12C480.202 60.01 479.952 59.905 479.692 59.805C479.372 59.685 479.052 59.54 478.732 59.37C478.422 59.19 478.167 58.965 477.967 58.695C477.767 58.415 477.667 58.07 477.667 57.66C477.667 57.01 477.907 56.48 478.387 56.07C478.867 55.66 479.517 55.455 480.337 55.455C480.857 55.455 481.322 55.545 481.732 55.725C482.142 55.905 482.497 56.11 482.797 56.34L482.002 57.39C481.742 57.2 481.477 57.05 481.207 56.94C480.947 56.82 480.672 56.76 480.382 56.76C480.012 56.76 479.737 56.84 479.557 57C479.377 57.15 479.287 57.34 479.287 57.57C479.287 57.86 479.437 58.08 479.737 58.23C480.037 58.38 480.387 58.525 480.787 58.665C481.127 58.785 481.457 58.935 481.777 59.115C482.097 59.285 482.362 59.51 482.572 59.79C482.792 60.07 482.902 60.44 482.902 60.9C482.902 61.53 482.657 62.07 482.167 62.52C481.677 62.96 480.967 63.18 480.037 63.18ZM487.217 63.18C486.547 63.18 485.942 63.03 485.402 62.73C484.872 62.42 484.447 61.98 484.127 61.41C483.817 60.83 483.662 60.135 483.662 59.325C483.662 58.505 483.832 57.81 484.172 57.24C484.512 56.66 484.962 56.22 485.522 55.92C486.092 55.61 486.702 55.455 487.352 55.455C487.822 55.455 488.232 55.535 488.582 55.695C488.932 55.855 489.242 56.05 489.512 56.28L488.672 57.405C488.482 57.235 488.287 57.105 488.087 57.015C487.887 56.915 487.672 56.865 487.442 56.865C486.852 56.865 486.367 57.09 485.987 57.54C485.617 57.99 485.432 58.585 485.432 59.325C485.432 60.055 485.612 60.645 485.972 61.095C486.342 61.545 486.817 61.77 487.397 61.77C487.687 61.77 487.957 61.71 488.207 61.59C488.467 61.46 488.702 61.31 488.912 61.14L489.617 62.28C489.277 62.58 488.897 62.805 488.477 62.955C488.057 63.105 487.637 63.18 487.217 63.18ZM490.771 63V52.41H492.496V55.14L492.436 56.565C492.746 56.275 493.091 56.02 493.471 55.8C493.851 55.57 494.291 55.455 494.791 55.455C495.581 55.455 496.156 55.71 496.516 56.22C496.876 56.73 497.056 57.45 497.056 58.38V63H495.331V58.605C495.331 57.995 495.241 57.565 495.061 57.315C494.881 57.065 494.586 56.94 494.176 56.94C493.856 56.94 493.571 57.02 493.321 57.18C493.081 57.33 492.806 57.555 492.496 57.855V63H490.771ZM500.515 63.18C499.905 63.18 499.47 62.995 499.21 62.625C498.96 62.255 498.835 61.75 498.835 61.11V52.41H500.56V61.2C500.56 61.41 500.6 61.56 500.68 61.65C500.76 61.73 500.845 61.77 500.935 61.77C500.975 61.77 501.01 61.77 501.04 61.77C501.08 61.76 501.135 61.75 501.205 61.74L501.43 63.03C501.33 63.07 501.2 63.105 501.04 63.135C500.89 63.165 500.715 63.18 500.515 63.18ZM504.393 63.18C503.753 63.18 503.228 62.98 502.818 62.58C502.418 62.18 502.218 61.66 502.218 61.02C502.218 60.23 502.563 59.62 503.253 59.19C503.943 58.75 505.043 58.45 506.553 58.29C506.543 57.9 506.438 57.565 506.238 57.285C506.048 56.995 505.703 56.85 505.203 56.85C504.843 56.85 504.488 56.92 504.138 57.06C503.798 57.2 503.463 57.37 503.133 57.57L502.503 56.415C502.913 56.155 503.373 55.93 503.883 55.74C504.403 55.55 504.953 55.455 505.533 55.455C506.453 55.455 507.138 55.73 507.588 56.28C508.048 56.82 508.278 57.605 508.278 58.635V63H506.853L506.733 62.19H506.673C506.343 62.47 505.988 62.705 505.608 62.895C505.238 63.085 504.833 63.18 504.393 63.18ZM504.948 61.83C505.248 61.83 505.518 61.76 505.758 61.62C506.008 61.47 506.273 61.27 506.553 61.02V59.37C505.553 59.5 504.858 59.695 504.468 59.955C504.078 60.205 503.883 60.515 503.883 60.885C503.883 61.215 503.983 61.455 504.183 61.605C504.383 61.755 504.638 61.83 504.948 61.83ZM512.607 66.255C512.027 66.255 511.502 66.185 511.032 66.045C510.572 65.905 510.207 65.69 509.937 65.4C509.677 65.12 509.547 64.765 509.547 64.335C509.547 63.725 509.897 63.2 510.597 62.76V62.7C510.407 62.58 510.247 62.42 510.117 62.22C509.997 62.02 509.937 61.77 509.937 61.47C509.937 61.18 510.017 60.92 510.177 60.69C510.347 60.45 510.537 60.255 510.747 60.105V60.045C510.497 59.855 510.272 59.59 510.072 59.25C509.882 58.91 509.787 58.525 509.787 58.095C509.787 57.525 509.922 57.045 510.192 56.655C510.462 56.265 510.817 55.97 511.257 55.77C511.707 55.56 512.187 55.455 512.697 55.455C512.897 55.455 513.087 55.475 513.267 55.515C513.457 55.545 513.627 55.585 513.777 55.635H516.417V56.91H515.067C515.187 57.05 515.287 57.23 515.367 57.45C515.447 57.66 515.487 57.895 515.487 58.155C515.487 58.695 515.362 59.155 515.112 59.535C514.862 59.905 514.527 60.185 514.107 60.375C513.687 60.565 513.217 60.66 512.697 60.66C512.537 60.66 512.372 60.645 512.202 60.615C512.032 60.585 511.862 60.535 511.692 60.465C511.582 60.565 511.492 60.665 511.422 60.765C511.362 60.865 511.332 61 511.332 61.17C511.332 61.38 511.417 61.545 511.587 61.665C511.767 61.785 512.082 61.845 512.532 61.845H513.837C514.727 61.845 515.397 61.99 515.847 62.28C516.307 62.56 516.537 63.02 516.537 63.66C516.537 64.14 516.377 64.575 516.057 64.965C515.737 65.365 515.282 65.68 514.692 65.91C514.102 66.14 513.407 66.255 512.607 66.255ZM512.697 59.58C513.047 59.58 513.347 59.45 513.597 59.19C513.847 58.93 513.972 58.565 513.972 58.095C513.972 57.635 513.847 57.28 513.597 57.03C513.357 56.77 513.057 56.64 512.697 56.64C512.337 56.64 512.032 56.765 511.782 57.015C511.532 57.265 511.407 57.625 511.407 58.095C511.407 58.565 511.532 58.93 511.782 59.19C512.032 59.45 512.337 59.58 512.697 59.58ZM512.877 65.13C513.467 65.13 513.947 65.01 514.317 64.77C514.687 64.53 514.872 64.255 514.872 63.945C514.872 63.655 514.757 63.46 514.527 63.36C514.307 63.26 513.987 63.21 513.567 63.21H512.562C512.162 63.21 511.827 63.175 511.557 63.105C511.177 63.395 510.987 63.72 510.987 64.08C510.987 64.41 511.157 64.665 511.497 64.845C511.837 65.035 512.297 65.13 512.877 65.13ZM523.808 63.18C523.108 63.18 522.438 62.86 521.798 62.22H521.753L521.603 63H520.238V52.41H521.963V55.14L521.918 56.37C522.228 56.1 522.568 55.88 522.938 55.71C523.308 55.54 523.678 55.455 524.048 55.455C524.968 55.455 525.683 55.795 526.193 56.475C526.703 57.155 526.958 58.06 526.958 59.19C526.958 60.03 526.808 60.75 526.508 61.35C526.208 61.94 525.818 62.395 525.338 62.715C524.868 63.025 524.358 63.18 523.808 63.18ZM523.448 61.755C523.938 61.755 524.348 61.54 524.678 61.11C525.008 60.68 525.173 60.05 525.173 59.22C525.173 58.48 525.048 57.905 524.798 57.495C524.548 57.085 524.143 56.88 523.583 56.88C523.063 56.88 522.523 57.155 521.963 57.705V61.14C522.223 61.36 522.478 61.52 522.728 61.62C522.988 61.71 523.228 61.755 523.448 61.755ZM531.54 63.18C530.86 63.18 530.245 63.03 529.695 62.73C529.145 62.42 528.71 61.98 528.39 61.41C528.07 60.83 527.91 60.135 527.91 59.325C527.91 58.525 528.07 57.835 528.39 57.255C528.72 56.675 529.145 56.23 529.665 55.92C530.185 55.61 530.73 55.455 531.3 55.455C531.97 55.455 532.53 55.605 532.98 55.905C533.43 56.195 533.77 56.605 534 57.135C534.23 57.655 534.345 58.26 534.345 58.95C534.345 59.31 534.32 59.59 534.27 59.79H529.59C529.67 60.44 529.905 60.945 530.295 61.305C530.685 61.665 531.175 61.845 531.765 61.845C532.085 61.845 532.38 61.8 532.65 61.71C532.93 61.61 533.205 61.475 533.475 61.305L534.06 62.385C533.71 62.615 533.32 62.805 532.89 62.955C532.46 63.105 532.01 63.18 531.54 63.18ZM529.575 58.62H532.845C532.845 58.05 532.72 57.605 532.47 57.285C532.22 56.955 531.845 56.79 531.345 56.79C530.915 56.79 530.53 56.95 530.19 57.27C529.86 57.58 529.655 58.03 529.575 58.62ZM535.692 63V55.635H537.117L537.237 56.625H537.297C537.627 56.305 537.987 56.03 538.377 55.8C538.767 55.57 539.212 55.455 539.712 55.455C540.502 55.455 541.077 55.71 541.437 56.22C541.797 56.73 541.977 57.45 541.977 58.38V63H540.252V58.605C540.252 57.995 540.162 57.565 539.982 57.315C539.802 57.065 539.507 56.94 539.097 56.94C538.777 56.94 538.492 57.02 538.242 57.18C538.002 57.33 537.727 57.555 537.417 57.855V63H535.692ZM545.976 63.18C545.186 63.18 544.611 62.925 544.251 62.415C543.891 61.905 543.711 61.185 543.711 60.255V55.635H545.436V60.03C545.436 60.64 545.526 61.07 545.706 61.32C545.886 61.57 546.176 61.695 546.576 61.695C546.896 61.695 547.176 61.615 547.416 61.455C547.666 61.295 547.931 61.035 548.211 60.675V55.635H549.936V63H548.526L548.391 61.92H548.346C548.026 62.3 547.676 62.605 547.296 62.835C546.916 63.065 546.476 63.18 545.976 63.18ZM554.416 63.18C553.566 63.18 552.961 62.935 552.601 62.445C552.251 61.945 552.076 61.3 552.076 60.51V57H551.026V55.71L552.166 55.635L552.376 53.625H553.816V55.635H555.691V57H553.816V60.51C553.816 61.37 554.161 61.8 554.851 61.8C554.981 61.8 555.116 61.785 555.256 61.755C555.396 61.715 555.516 61.675 555.616 61.635L555.916 62.91C555.716 62.98 555.486 63.04 555.226 63.09C554.976 63.15 554.706 63.18 554.416 63.18ZM556.356 63V62.07L559.836 57H556.746V55.635H561.996V56.55L558.531 61.62H562.116V63H556.356ZM566.295 63.18C565.615 63.18 565 63.03 564.45 62.73C563.9 62.42 563.465 61.98 563.145 61.41C562.825 60.83 562.665 60.135 562.665 59.325C562.665 58.525 562.825 57.835 563.145 57.255C563.475 56.675 563.9 56.23 564.42 55.92C564.94 55.61 565.485 55.455 566.055 55.455C566.725 55.455 567.285 55.605 567.735 55.905C568.185 56.195 568.525 56.605 568.755 57.135C568.985 57.655 569.1 58.26 569.1 58.95C569.1 59.31 569.075 59.59 569.025 59.79H564.345C564.425 60.44 564.66 60.945 565.05 61.305C565.44 61.665 565.93 61.845 566.52 61.845C566.84 61.845 567.135 61.8 567.405 61.71C567.685 61.61 567.96 61.475 568.23 61.305L568.815 62.385C568.465 62.615 568.075 62.805 567.645 62.955C567.215 63.105 566.765 63.18 566.295 63.18ZM564.33 58.62H567.6C567.6 58.05 567.475 57.605 567.225 57.285C566.975 56.955 566.6 56.79 566.1 56.79C565.67 56.79 565.285 56.95 564.945 57.27C564.615 57.58 564.41 58.03 564.33 58.62ZM570.447 63V55.635H571.872L571.992 56.625H572.052C572.382 56.305 572.742 56.03 573.132 55.8C573.522 55.57 573.967 55.455 574.467 55.455C575.257 55.455 575.832 55.71 576.192 56.22C576.552 56.73 576.732 57.45 576.732 58.38V63H575.007V58.605C575.007 57.995 574.917 57.565 574.737 57.315C574.557 57.065 574.262 56.94 573.852 56.94C573.532 56.94 573.247 57.02 572.997 57.18C572.757 57.33 572.482 57.555 572.172 57.855V63H570.447Z" fill="#1877F2"/>
</g>
<path d="M506.5 85L506.5 103C506.5 114.046 497.546 123 486.5 123L313 123" stroke="#1877F2" stroke-width="2" stroke-linecap="round" stroke-linejoin="round"/>
<path d="M113.5 85L113.5 103C113.5 114.046 122.454 123 133.5 123L313 123" stroke="#1877F2" stroke-width="2" stroke-linecap="round" stroke-linejoin="round"/>
<path d="M309 85L309 139" stroke="#1877F2" stroke-width="2" stroke-linecap="round" stroke-linejoin="round"/>
<g filter="url(#filter3_d_37_1034)">
<rect x="227.5" y="143" width="165" height="47" rx="20" fill="white" shape-rendering="crispEdges"/>
<rect x="228" y="143.5" width="164" height="46" rx="19.5" stroke="#64A4FF" stroke-opacity="0.3" shape-rendering="crispEdges"/>
<path d="M248.587 172V162.19H254.512V163.66H250.327V166.435H253.897V167.905H250.327V172H248.587ZM255.491 172V164.635H256.916L257.036 165.94H257.096C257.356 165.46 257.671 165.095 258.041 164.845C258.411 164.585 258.791 164.455 259.181 164.455C259.531 164.455 259.811 164.505 260.021 164.605L259.721 166.105C259.591 166.065 259.471 166.035 259.361 166.015C259.251 165.995 259.116 165.985 258.956 165.985C258.666 165.985 258.361 166.1 258.041 166.33C257.721 166.55 257.446 166.94 257.216 167.5V172H255.491ZM262.176 172.18C261.536 172.18 261.011 171.98 260.601 171.58C260.201 171.18 260.001 170.66 260.001 170.02C260.001 169.23 260.346 168.62 261.036 168.19C261.726 167.75 262.826 167.45 264.336 167.29C264.326 166.9 264.221 166.565 264.021 166.285C263.831 165.995 263.486 165.85 262.986 165.85C262.626 165.85 262.271 165.92 261.921 166.06C261.581 166.2 261.246 166.37 260.916 166.57L260.286 165.415C260.696 165.155 261.156 164.93 261.666 164.74C262.186 164.55 262.736 164.455 263.316 164.455C264.236 164.455 264.921 164.73 265.371 165.28C265.831 165.82 266.061 166.605 266.061 167.635V172H264.636L264.516 171.19H264.456C264.126 171.47 263.771 171.705 263.391 171.895C263.021 172.085 262.616 172.18 262.176 172.18ZM262.731 170.83C263.031 170.83 263.301 170.76 263.541 170.62C263.791 170.47 264.056 170.27 264.336 170.02V168.37C263.336 168.5 262.641 168.695 262.251 168.955C261.861 169.205 261.666 169.515 261.666 169.885C261.666 170.215 261.766 170.455 261.966 170.605C262.166 170.755 262.421 170.83 262.731 170.83ZM270.391 175.255C269.811 175.255 269.286 175.185 268.816 175.045C268.356 174.905 267.991 174.69 267.721 174.4C267.461 174.12 267.331 173.765 267.331 173.335C267.331 172.725 267.681 172.2 268.381 171.76V171.7C268.191 171.58 268.031 171.42 267.901 171.22C267.781 171.02 267.721 170.77 267.721 170.47C267.721 170.18 267.801 169.92 267.961 169.69C268.131 169.45 268.321 169.255 268.531 169.105V169.045C268.281 168.855 268.056 168.59 267.856 168.25C267.666 167.91 267.571 167.525 267.571 167.095C267.571 166.525 267.706 166.045 267.976 165.655C268.246 165.265 268.601 164.97 269.041 164.77C269.491 164.56 269.971 164.455 270.481 164.455C270.681 164.455 270.871 164.475 271.051 164.515C271.241 164.545 271.411 164.585 271.561 164.635H274.201V165.91H272.851C272.971 166.05 273.071 166.23 273.151 166.45C273.231 166.66 273.271 166.895 273.271 167.155C273.271 167.695 273.146 168.155 272.896 168.535C272.646 168.905 272.311 169.185 271.891 169.375C271.471 169.565 271.001 169.66 270.481 169.66C270.321 169.66 270.156 169.645 269.986 169.615C269.816 169.585 269.646 169.535 269.476 169.465C269.366 169.565 269.276 169.665 269.206 169.765C269.146 169.865 269.116 170 269.116 170.17C269.116 170.38 269.201 170.545 269.371 170.665C269.551 170.785 269.866 170.845 270.316 170.845H271.621C272.511 170.845 273.181 170.99 273.631 171.28C274.091 171.56 274.321 172.02 274.321 172.66C274.321 173.14 274.161 173.575 273.841 173.965C273.521 174.365 273.066 174.68 272.476 174.91C271.886 175.14 271.191 175.255 270.391 175.255ZM270.481 168.58C270.831 168.58 271.131 168.45 271.381 168.19C271.631 167.93 271.756 167.565 271.756 167.095C271.756 166.635 271.631 166.28 271.381 166.03C271.141 165.77 270.841 165.64 270.481 165.64C270.121 165.64 269.816 165.765 269.566 166.015C269.316 166.265 269.191 166.625 269.191 167.095C269.191 167.565 269.316 167.93 269.566 168.19C269.816 168.45 270.121 168.58 270.481 168.58ZM270.661 174.13C271.251 174.13 271.731 174.01 272.101 173.77C272.471 173.53 272.656 173.255 272.656 172.945C272.656 172.655 272.541 172.46 272.311 172.36C272.091 172.26 271.771 172.21 271.351 172.21H270.346C269.946 172.21 269.611 172.175 269.341 172.105C268.961 172.395 268.771 172.72 268.771 173.08C268.771 173.41 268.941 173.665 269.281 173.845C269.621 174.035 270.081 174.13 270.661 174.13ZM278.234 172.18C277.554 172.18 276.939 172.03 276.389 171.73C275.839 171.42 275.404 170.98 275.084 170.41C274.764 169.83 274.604 169.135 274.604 168.325C274.604 167.525 274.764 166.835 275.084 166.255C275.414 165.675 275.839 165.23 276.359 164.92C276.879 164.61 277.424 164.455 277.994 164.455C278.664 164.455 279.224 164.605 279.674 164.905C280.124 165.195 280.464 165.605 280.694 166.135C280.924 166.655 281.039 167.26 281.039 167.95C281.039 168.31 281.014 168.59 280.964 168.79H276.284C276.364 169.44 276.599 169.945 276.989 170.305C277.379 170.665 277.869 170.845 278.459 170.845C278.779 170.845 279.074 170.8 279.344 170.71C279.624 170.61 279.899 170.475 280.169 170.305L280.754 171.385C280.404 171.615 280.014 171.805 279.584 171.955C279.154 172.105 278.704 172.18 278.234 172.18ZM276.269 167.62H279.539C279.539 167.05 279.414 166.605 279.164 166.285C278.914 165.955 278.539 165.79 278.039 165.79C277.609 165.79 277.224 165.95 276.884 166.27C276.554 166.58 276.349 167.03 276.269 167.62ZM282.387 172V164.635H283.812L283.932 165.625H283.992C284.322 165.305 284.682 165.03 285.072 164.8C285.462 164.57 285.907 164.455 286.407 164.455C287.197 164.455 287.772 164.71 288.132 165.22C288.492 165.73 288.672 166.45 288.672 167.38V172H286.947V167.605C286.947 166.995 286.857 166.565 286.677 166.315C286.497 166.065 286.202 165.94 285.792 165.94C285.472 165.94 285.187 166.02 284.937 166.18C284.697 166.33 284.422 166.555 284.112 166.855V172H282.387ZM296.753 172.18C296.053 172.18 295.383 171.86 294.743 171.22H294.698L294.548 172H293.183V161.41H294.908V164.14L294.863 165.37C295.173 165.1 295.513 164.88 295.883 164.71C296.253 164.54 296.623 164.455 296.993 164.455C297.913 164.455 298.628 164.795 299.138 165.475C299.648 166.155 299.903 167.06 299.903 168.19C299.903 169.03 299.753 169.75 299.453 170.35C299.153 170.94 298.763 171.395 298.283 171.715C297.813 172.025 297.303 172.18 296.753 172.18ZM296.393 170.755C296.883 170.755 297.293 170.54 297.623 170.11C297.953 169.68 298.118 169.05 298.118 168.22C298.118 167.48 297.993 166.905 297.743 166.495C297.493 166.085 297.088 165.88 296.528 165.88C296.008 165.88 295.468 166.155 294.908 166.705V170.14C295.168 170.36 295.423 170.52 295.673 170.62C295.933 170.71 296.173 170.755 296.393 170.755ZM304.485 172.18C303.805 172.18 303.19 172.03 302.64 171.73C302.09 171.42 301.655 170.98 301.335 170.41C301.015 169.83 300.855 169.135 300.855 168.325C300.855 167.525 301.015 166.835 301.335 166.255C301.665 165.675 302.09 165.23 302.61 164.92C303.13 164.61 303.675 164.455 304.245 164.455C304.915 164.455 305.475 164.605 305.925 164.905C306.375 165.195 306.715 165.605 306.945 166.135C307.175 166.655 307.29 167.26 307.29 167.95C307.29 168.31 307.265 168.59 307.215 168.79H302.535C302.615 169.44 302.85 169.945 303.24 170.305C303.63 170.665 304.12 170.845 304.71 170.845C305.03 170.845 305.325 170.8 305.595 170.71C305.875 170.61 306.15 170.475 306.42 170.305L307.005 171.385C306.655 171.615 306.265 171.805 305.835 171.955C305.405 172.105 304.955 172.18 304.485 172.18ZM302.52 167.62H305.79C305.79 167.05 305.665 166.605 305.415 166.285C305.165 165.955 304.79 165.79 304.29 165.79C303.86 165.79 303.475 165.95 303.135 166.27C302.805 166.58 302.6 167.03 302.52 167.62ZM310.247 172.18C309.607 172.18 309.082 171.98 308.672 171.58C308.272 171.18 308.072 170.66 308.072 170.02C308.072 169.23 308.417 168.62 309.107 168.19C309.797 167.75 310.897 167.45 312.407 167.29C312.397 166.9 312.292 166.565 312.092 166.285C311.902 165.995 311.557 165.85 311.057 165.85C310.697 165.85 310.342 165.92 309.992 166.06C309.652 166.2 309.317 166.37 308.987 166.57L308.357 165.415C308.767 165.155 309.227 164.93 309.737 164.74C310.257 164.55 310.807 164.455 311.387 164.455C312.307 164.455 312.992 164.73 313.442 165.28C313.902 165.82 314.132 166.605 314.132 167.635V172H312.707L312.587 171.19H312.527C312.197 171.47 311.842 171.705 311.462 171.895C311.092 172.085 310.687 172.18 310.247 172.18ZM310.802 170.83C311.102 170.83 311.372 170.76 311.612 170.62C311.862 170.47 312.127 170.27 312.407 170.02V168.37C311.407 168.5 310.712 168.695 310.322 168.955C309.932 169.205 309.737 169.515 309.737 169.885C309.737 170.215 309.837 170.455 310.037 170.605C310.237 170.755 310.492 170.83 310.802 170.83ZM315.896 172V164.635H317.321L317.441 165.625H317.501C317.831 165.305 318.191 165.03 318.581 164.8C318.971 164.57 319.416 164.455 319.916 164.455C320.706 164.455 321.281 164.71 321.641 165.22C322.001 165.73 322.181 166.45 322.181 167.38V172H320.456V167.605C320.456 166.995 320.366 166.565 320.186 166.315C320.006 166.065 319.711 165.94 319.301 165.94C318.981 165.94 318.696 166.02 318.446 166.18C318.206 166.33 317.931 166.555 317.621 166.855V172H315.896ZM326.585 172.18C325.735 172.18 325.13 171.935 324.77 171.445C324.42 170.945 324.245 170.3 324.245 169.51V166H323.195V164.71L324.335 164.635L324.545 162.625H325.985V164.635H327.86V166H325.985V169.51C325.985 170.37 326.33 170.8 327.02 170.8C327.15 170.8 327.285 170.785 327.425 170.755C327.565 170.715 327.685 170.675 327.785 170.635L328.085 171.91C327.885 171.98 327.655 172.04 327.395 172.09C327.145 172.15 326.875 172.18 326.585 172.18ZM330.325 172L328.375 164.635H330.115L331 168.46C331.08 168.81 331.145 169.16 331.195 169.51C331.255 169.86 331.32 170.215 331.39 170.575H331.45C331.52 170.215 331.59 169.86 331.66 169.51C331.74 169.15 331.825 168.8 331.915 168.46L332.875 164.635H334.45L335.425 168.46C335.515 168.81 335.6 169.16 335.68 169.51C335.76 169.86 335.84 170.215 335.92 170.575H335.98C336.05 170.215 336.115 169.86 336.175 169.51C336.235 169.16 336.3 168.81 336.37 168.46L337.255 164.635H338.875L337 172H334.945L334.09 168.565C334.01 168.215 333.935 167.87 333.865 167.53C333.795 167.18 333.72 166.81 333.64 166.42H333.58C333.51 166.81 333.44 167.18 333.37 167.53C333.3 167.88 333.225 168.23 333.145 168.58L332.305 172H330.325ZM342.958 172.18C342.348 172.18 341.778 172.03 341.248 171.73C340.718 171.42 340.288 170.98 339.958 170.41C339.628 169.83 339.463 169.135 339.463 168.325C339.463 167.505 339.628 166.81 339.958 166.24C340.288 165.66 340.718 165.22 341.248 164.92C341.778 164.61 342.348 164.455 342.958 164.455C343.578 164.455 344.153 164.61 344.683 164.92C345.213 165.22 345.643 165.66 345.973 166.24C346.303 166.81 346.468 167.505 346.468 168.325C346.468 169.135 346.303 169.83 345.973 170.41C345.643 170.98 345.213 171.42 344.683 171.73C344.153 172.03 343.578 172.18 342.958 172.18ZM342.958 170.77C343.498 170.77 343.923 170.545 344.233 170.095C344.543 169.645 344.698 169.055 344.698 168.325C344.698 167.585 344.543 166.99 344.233 166.54C343.923 166.09 343.498 165.865 342.958 165.865C342.418 165.865 341.993 166.09 341.683 166.54C341.383 166.99 341.233 167.585 341.233 168.325C341.233 169.055 341.383 169.645 341.683 170.095C341.993 170.545 342.418 170.77 342.958 170.77ZM347.875 172V164.635H349.3L349.42 165.94H349.48C349.74 165.46 350.055 165.095 350.425 164.845C350.795 164.585 351.175 164.455 351.565 164.455C351.915 164.455 352.195 164.505 352.405 164.605L352.105 166.105C351.975 166.065 351.855 166.035 351.745 166.015C351.635 165.995 351.5 165.985 351.34 165.985C351.05 165.985 350.745 166.1 350.425 166.33C350.105 166.55 349.83 166.94 349.6 167.5V172H347.875ZM355.766 172.18C354.916 172.18 354.311 171.935 353.951 171.445C353.601 170.945 353.426 170.3 353.426 169.51V166H352.376V164.71L353.516 164.635L353.726 162.625H355.166V164.635H357.041V166H355.166V169.51C355.166 170.37 355.511 170.8 356.201 170.8C356.331 170.8 356.466 170.785 356.606 170.755C356.746 170.715 356.866 170.675 356.966 170.635L357.266 171.91C357.066 171.98 356.836 172.04 356.576 172.09C356.326 172.15 356.056 172.18 355.766 172.18ZM361.206 172.18C360.526 172.18 359.911 172.03 359.361 171.73C358.811 171.42 358.376 170.98 358.056 170.41C357.736 169.83 357.576 169.135 357.576 168.325C357.576 167.525 357.736 166.835 358.056 166.255C358.386 165.675 358.811 165.23 359.331 164.92C359.851 164.61 360.396 164.455 360.966 164.455C361.636 164.455 362.196 164.605 362.646 164.905C363.096 165.195 363.436 165.605 363.666 166.135C363.896 166.655 364.011 167.26 364.011 167.95C364.011 168.31 363.986 168.59 363.936 168.79H359.256C359.336 169.44 359.571 169.945 359.961 170.305C360.351 170.665 360.841 170.845 361.431 170.845C361.751 170.845 362.046 170.8 362.316 170.71C362.596 170.61 362.871 170.475 363.141 170.305L363.726 171.385C363.376 171.615 362.986 171.805 362.556 171.955C362.126 172.105 361.676 172.18 361.206 172.18ZM359.241 167.62H362.511C362.511 167.05 362.386 166.605 362.136 166.285C361.886 165.955 361.511 165.79 361.011 165.79C360.581 165.79 360.196 165.95 359.856 166.27C359.526 166.58 359.321 167.03 359.241 167.62ZM365.359 172V164.635H366.784L366.904 165.625H366.964C367.294 165.305 367.654 165.03 368.044 164.8C368.434 164.57 368.879 164.455 369.379 164.455C370.169 164.455 370.744 164.71 371.104 165.22C371.464 165.73 371.644 166.45 371.644 167.38V172H369.919V167.605C369.919 166.995 369.829 166.565 369.649 166.315C369.469 166.065 369.174 165.94 368.764 165.94C368.444 165.94 368.159 166.02 367.909 166.18C367.669 166.33 367.394 166.555 367.084 166.855V172H365.359Z" fill="#1877F2"/>
</g>
<path d="M310 194V226" stroke="#1877F2" stroke-width="2" stroke-linecap="round" stroke-linejoin="round"/>
<g filter="url(#filter4_d_37_1034)">
<rect x="227.5" y="230" width="165" height="47" rx="20" fill="white" shape-rendering="crispEdges"/>
<rect x="228" y="230.5" width="164" height="46" rx="19.5" stroke="#64A4FF" stroke-opacity="0.3" shape-rendering="crispEdges"/>
<path d="M265.679 259V249.19H267.419V253.645H267.464L270.959 249.19H272.894L269.879 253.015L273.404 259H271.484L268.829 254.38L267.419 256.135V259H265.679ZM275.964 259.18C275.324 259.18 274.799 258.98 274.389 258.58C273.989 258.18 273.789 257.66 273.789 257.02C273.789 256.23 274.134 255.62 274.824 255.19C275.514 254.75 276.614 254.45 278.124 254.29C278.114 253.9 278.009 253.565 277.809 253.285C277.619 252.995 277.274 252.85 276.774 252.85C276.414 252.85 276.059 252.92 275.709 253.06C275.369 253.2 275.034 253.37 274.704 253.57L274.074 252.415C274.484 252.155 274.944 251.93 275.454 251.74C275.974 251.55 276.524 251.455 277.104 251.455C278.024 251.455 278.709 251.73 279.159 252.28C279.619 252.82 279.849 253.605 279.849 254.635V259H278.424L278.304 258.19H278.244C277.914 258.47 277.559 258.705 277.179 258.895C276.809 259.085 276.404 259.18 275.964 259.18ZM276.519 257.83C276.819 257.83 277.089 257.76 277.329 257.62C277.579 257.47 277.844 257.27 278.124 257.02V255.37C277.124 255.5 276.429 255.695 276.039 255.955C275.649 256.205 275.454 256.515 275.454 256.885C275.454 257.215 275.554 257.455 275.754 257.605C275.954 257.755 276.209 257.83 276.519 257.83ZM281.614 259V251.635H283.039L283.159 252.625H283.219C283.549 252.305 283.909 252.03 284.299 251.8C284.689 251.57 285.134 251.455 285.634 251.455C286.424 251.455 286.999 251.71 287.359 252.22C287.719 252.73 287.899 253.45 287.899 254.38V259H286.174V254.605C286.174 253.995 286.084 253.565 285.904 253.315C285.724 253.065 285.429 252.94 285.019 252.94C284.699 252.94 284.414 253.02 284.164 253.18C283.924 253.33 283.649 253.555 283.339 253.855V259H281.614ZM291.492 259.18C290.852 259.18 290.327 258.98 289.917 258.58C289.517 258.18 289.317 257.66 289.317 257.02C289.317 256.23 289.662 255.62 290.352 255.19C291.042 254.75 292.142 254.45 293.652 254.29C293.642 253.9 293.537 253.565 293.337 253.285C293.147 252.995 292.802 252.85 292.302 252.85C291.942 252.85 291.587 252.92 291.237 253.06C290.897 253.2 290.562 253.37 290.232 253.57L289.602 252.415C290.012 252.155 290.472 251.93 290.982 251.74C291.502 251.55 292.052 251.455 292.632 251.455C293.552 251.455 294.237 251.73 294.687 252.28C295.147 252.82 295.377 253.605 295.377 254.635V259H293.952L293.832 258.19H293.772C293.442 258.47 293.087 258.705 292.707 258.895C292.337 259.085 291.932 259.18 291.492 259.18ZM292.047 257.83C292.347 257.83 292.617 257.76 292.857 257.62C293.107 257.47 293.372 257.27 293.652 257.02V255.37C292.652 255.5 291.957 255.695 291.567 255.955C291.177 256.205 290.982 256.515 290.982 256.885C290.982 257.215 291.082 257.455 291.282 257.605C291.482 257.755 291.737 257.83 292.047 257.83ZM291.147 250.33C290.887 250.33 290.667 250.24 290.487 250.06C290.317 249.88 290.232 249.665 290.232 249.415C290.232 249.155 290.317 248.94 290.487 248.77C290.667 248.59 290.887 248.5 291.147 248.5C291.417 248.5 291.637 248.59 291.807 248.77C291.977 248.94 292.062 249.155 292.062 249.415C292.062 249.665 291.977 249.88 291.807 250.06C291.637 250.24 291.417 250.33 291.147 250.33ZM294.237 250.33C293.967 250.33 293.747 250.24 293.577 250.06C293.407 249.88 293.322 249.665 293.322 249.415C293.322 249.155 293.407 248.94 293.577 248.77C293.747 248.59 293.967 248.5 294.237 248.5C294.497 248.5 294.712 248.59 294.882 248.77C295.062 248.94 295.152 249.155 295.152 249.415C295.152 249.665 295.062 249.88 294.882 250.06C294.712 250.24 294.497 250.33 294.237 250.33ZM298.822 259.18C298.212 259.18 297.777 258.995 297.517 258.625C297.267 258.255 297.142 257.75 297.142 257.11V248.41H298.867V257.2C298.867 257.41 298.907 257.56 298.987 257.65C299.067 257.73 299.152 257.77 299.242 257.77C299.282 257.77 299.317 257.77 299.347 257.77C299.387 257.76 299.442 257.75 299.512 257.74L299.737 259.03C299.637 259.07 299.507 259.105 299.347 259.135C299.197 259.165 299.022 259.18 298.822 259.18ZM304.064 259.18C303.384 259.18 302.769 259.03 302.219 258.73C301.669 258.42 301.234 257.98 300.914 257.41C300.594 256.83 300.434 256.135 300.434 255.325C300.434 254.525 300.594 253.835 300.914 253.255C301.244 252.675 301.669 252.23 302.189 251.92C302.709 251.61 303.254 251.455 303.824 251.455C304.494 251.455 305.054 251.605 305.504 251.905C305.954 252.195 306.294 252.605 306.524 253.135C306.754 253.655 306.869 254.26 306.869 254.95C306.869 255.31 306.844 255.59 306.794 255.79H302.114C302.194 256.44 302.429 256.945 302.819 257.305C303.209 257.665 303.699 257.845 304.289 257.845C304.609 257.845 304.904 257.8 305.174 257.71C305.454 257.61 305.729 257.475 305.999 257.305L306.584 258.385C306.234 258.615 305.844 258.805 305.414 258.955C304.984 259.105 304.534 259.18 304.064 259.18ZM302.099 254.62H305.369C305.369 254.05 305.244 253.605 304.994 253.285C304.744 252.955 304.369 252.79 303.869 252.79C303.439 252.79 303.054 252.95 302.714 253.27C302.384 253.58 302.179 254.03 302.099 254.62ZM312.135 259L310.185 251.635H311.925L312.81 255.46C312.89 255.81 312.955 256.16 313.005 256.51C313.065 256.86 313.13 257.215 313.2 257.575H313.26C313.33 257.215 313.4 256.86 313.47 256.51C313.55 256.15 313.635 255.8 313.725 255.46L314.685 251.635H316.26L317.235 255.46C317.325 255.81 317.41 256.16 317.49 256.51C317.57 256.86 317.65 257.215 317.73 257.575H317.79C317.86 257.215 317.925 256.86 317.985 256.51C318.045 256.16 318.11 255.81 318.18 255.46L319.065 251.635H320.685L318.81 259H316.755L315.9 255.565C315.82 255.215 315.745 254.87 315.675 254.53C315.605 254.18 315.53 253.81 315.45 253.42H315.39C315.32 253.81 315.25 254.18 315.18 254.53C315.11 254.88 315.035 255.23 314.955 255.58L314.115 259H312.135ZM323.479 259.18C322.839 259.18 322.314 258.98 321.904 258.58C321.504 258.18 321.304 257.66 321.304 257.02C321.304 256.23 321.649 255.62 322.339 255.19C323.029 254.75 324.129 254.45 325.639 254.29C325.629 253.9 325.524 253.565 325.324 253.285C325.134 252.995 324.789 252.85 324.289 252.85C323.929 252.85 323.574 252.92 323.224 253.06C322.884 253.2 322.549 253.37 322.219 253.57L321.589 252.415C321.999 252.155 322.459 251.93 322.969 251.74C323.489 251.55 324.039 251.455 324.619 251.455C325.539 251.455 326.224 251.73 326.674 252.28C327.134 252.82 327.364 253.605 327.364 254.635V259H325.939L325.819 258.19H325.759C325.429 258.47 325.074 258.705 324.694 258.895C324.324 259.085 323.919 259.18 323.479 259.18ZM324.034 257.83C324.334 257.83 324.604 257.76 324.844 257.62C325.094 257.47 325.359 257.27 325.639 257.02V255.37C324.639 255.5 323.944 255.695 323.554 255.955C323.164 256.205 322.969 256.515 322.969 256.885C322.969 257.215 323.069 257.455 323.269 257.605C323.469 257.755 323.724 257.83 324.034 257.83ZM323.134 250.33C322.874 250.33 322.654 250.24 322.474 250.06C322.304 249.88 322.219 249.665 322.219 249.415C322.219 249.155 322.304 248.94 322.474 248.77C322.654 248.59 322.874 248.5 323.134 248.5C323.404 248.5 323.624 248.59 323.794 248.77C323.964 248.94 324.049 249.155 324.049 249.415C324.049 249.665 323.964 249.88 323.794 250.06C323.624 250.24 323.404 250.33 323.134 250.33ZM326.224 250.33C325.954 250.33 325.734 250.24 325.564 250.06C325.394 249.88 325.309 249.665 325.309 249.415C325.309 249.155 325.394 248.94 325.564 248.77C325.734 248.59 325.954 248.5 326.224 248.5C326.484 248.5 326.699 248.59 326.869 248.77C327.049 248.94 327.139 249.155 327.139 249.415C327.139 249.665 327.049 249.88 326.869 250.06C326.699 250.24 326.484 250.33 326.224 250.33ZM329.128 259V248.41H330.853V251.14L330.793 252.565C331.103 252.275 331.448 252.02 331.828 251.8C332.208 251.57 332.648 251.455 333.148 251.455C333.938 251.455 334.513 251.71 334.873 252.22C335.233 252.73 335.413 253.45 335.413 254.38V259H333.688V254.605C333.688 253.995 333.598 253.565 333.418 253.315C333.238 253.065 332.943 252.94 332.533 252.94C332.213 252.94 331.928 253.02 331.678 253.18C331.438 253.33 331.163 253.555 330.853 253.855V259H329.128ZM338.872 259.18C338.262 259.18 337.827 258.995 337.567 258.625C337.317 258.255 337.192 257.75 337.192 257.11V248.41H338.917V257.2C338.917 257.41 338.957 257.56 339.037 257.65C339.117 257.73 339.202 257.77 339.292 257.77C339.332 257.77 339.367 257.77 339.397 257.77C339.437 257.76 339.492 257.75 339.562 257.74L339.787 259.03C339.687 259.07 339.557 259.105 339.397 259.135C339.247 259.165 339.072 259.18 338.872 259.18ZM344.115 259.18C343.435 259.18 342.82 259.03 342.27 258.73C341.72 258.42 341.285 257.98 340.965 257.41C340.645 256.83 340.485 256.135 340.485 255.325C340.485 254.525 340.645 253.835 340.965 253.255C341.295 252.675 341.72 252.23 342.24 251.92C342.76 251.61 343.305 251.455 343.875 251.455C344.545 251.455 345.105 251.605 345.555 251.905C346.005 252.195 346.345 252.605 346.575 253.135C346.805 253.655 346.92 254.26 346.92 254.95C346.92 255.31 346.895 255.59 346.845 255.79H342.165C342.245 256.44 342.48 256.945 342.87 257.305C343.26 257.665 343.75 257.845 344.34 257.845C344.66 257.845 344.955 257.8 345.225 257.71C345.505 257.61 345.78 257.475 346.05 257.305L346.635 258.385C346.285 258.615 345.895 258.805 345.465 258.955C345.035 259.105 344.585 259.18 344.115 259.18ZM342.15 254.62H345.42C345.42 254.05 345.295 253.605 345.045 253.285C344.795 252.955 344.42 252.79 343.92 252.79C343.49 252.79 343.105 252.95 342.765 253.27C342.435 253.58 342.23 254.03 342.15 254.62ZM348.267 259V251.635H349.692L349.812 252.625H349.872C350.202 252.305 350.562 252.03 350.952 251.8C351.342 251.57 351.787 251.455 352.287 251.455C353.077 251.455 353.652 251.71 354.012 252.22C354.372 252.73 354.552 253.45 354.552 254.38V259H352.827V254.605C352.827 253.995 352.737 253.565 352.557 253.315C352.377 253.065 352.082 252.94 351.672 252.94C351.352 252.94 351.067 253.02 350.817 253.18C350.577 253.33 350.302 253.555 349.992 253.855V259H348.267Z" fill="#1877F2"/>
</g>
<path d="M310 281V313" stroke="#1877F2" stroke-width="2" stroke-linecap="round" stroke-linejoin="round"/>
<g filter="url(#filter5_d_37_1034)">
<rect x="227.5" y="317" width="165" height="71" rx="20" fill="white" shape-rendering="crispEdges"/>
<rect x="228" y="317.5" width="164" height="70" rx="19.5" stroke="#64A4FF" stroke-opacity="0.3" shape-rendering="crispEdges"/>
<path d="M308.462 342.538L300 338.692L320 331L312.308 351L308.462 342.538ZM308.462 342.538L313.077 337.923" stroke="#1877F2" stroke-width="1.5" stroke-linecap="round" stroke-linejoin="round"/>
<path d="M290.037 370V360.19H293.127C293.857 360.19 294.507 360.285 295.077 360.475C295.647 360.665 296.097 360.98 296.427 361.42C296.757 361.86 296.922 362.46 296.922 363.22C296.922 363.94 296.757 364.535 296.427 365.005C296.097 365.475 295.652 365.825 295.092 366.055C294.532 366.285 293.897 366.4 293.187 366.4H291.777V370H290.037ZM291.777 365.005H293.052C294.492 365.005 295.212 364.41 295.212 363.22C295.212 362.6 295.022 362.175 294.642 361.945C294.272 361.705 293.722 361.585 292.992 361.585H291.777V365.005ZM300.996 370.18C300.386 370.18 299.816 370.03 299.286 369.73C298.756 369.42 298.326 368.98 297.996 368.41C297.666 367.83 297.501 367.135 297.501 366.325C297.501 365.505 297.666 364.81 297.996 364.24C298.326 363.66 298.756 363.22 299.286 362.92C299.816 362.61 300.386 362.455 300.996 362.455C301.616 362.455 302.191 362.61 302.721 362.92C303.251 363.22 303.681 363.66 304.011 364.24C304.341 364.81 304.506 365.505 304.506 366.325C304.506 367.135 304.341 367.83 304.011 368.41C303.681 368.98 303.251 369.42 302.721 369.73C302.191 370.03 301.616 370.18 300.996 370.18ZM300.996 368.77C301.536 368.77 301.961 368.545 302.271 368.095C302.581 367.645 302.736 367.055 302.736 366.325C302.736 365.585 302.581 364.99 302.271 364.54C301.961 364.09 301.536 363.865 300.996 363.865C300.456 363.865 300.031 364.09 299.721 364.54C299.421 364.99 299.271 365.585 299.271 366.325C299.271 367.055 299.421 367.645 299.721 368.095C300.031 368.545 300.456 368.77 300.996 368.77ZM307.909 370.18C307.409 370.18 306.909 370.085 306.409 369.895C305.909 369.695 305.479 369.45 305.119 369.16L305.929 368.05C306.259 368.3 306.589 368.5 306.919 368.65C307.249 368.8 307.599 368.875 307.969 368.875C308.369 368.875 308.664 368.79 308.854 368.62C309.044 368.45 309.139 368.24 309.139 367.99C309.139 367.78 309.059 367.61 308.899 367.48C308.749 367.34 308.554 367.22 308.314 367.12C308.074 367.01 307.824 366.905 307.564 366.805C307.244 366.685 306.924 366.54 306.604 366.37C306.294 366.19 306.039 365.965 305.839 365.695C305.639 365.415 305.539 365.07 305.539 364.66C305.539 364.01 305.779 363.48 306.259 363.07C306.739 362.66 307.389 362.455 308.209 362.455C308.729 362.455 309.194 362.545 309.604 362.725C310.014 362.905 310.369 363.11 310.669 363.34L309.874 364.39C309.614 364.2 309.349 364.05 309.079 363.94C308.819 363.82 308.544 363.76 308.254 363.76C307.884 363.76 307.609 363.84 307.429 364C307.249 364.15 307.159 364.34 307.159 364.57C307.159 364.86 307.309 365.08 307.609 365.23C307.909 365.38 308.259 365.525 308.659 365.665C308.999 365.785 309.329 365.935 309.649 366.115C309.969 366.285 310.234 366.51 310.444 366.79C310.664 367.07 310.774 367.44 310.774 367.9C310.774 368.53 310.529 369.07 310.039 369.52C309.549 369.96 308.839 370.18 307.909 370.18ZM314.316 370.18C313.466 370.18 312.861 369.935 312.501 369.445C312.151 368.945 311.976 368.3 311.976 367.51V364H310.926V362.71L312.066 362.635L312.276 360.625H313.716V362.635H315.591V364H313.716V367.51C313.716 368.37 314.061 368.8 314.751 368.8C314.881 368.8 315.016 368.785 315.156 368.755C315.296 368.715 315.416 368.675 315.516 368.635L315.816 369.91C315.616 369.98 315.386 370.04 315.126 370.09C314.876 370.15 314.606 370.18 314.316 370.18ZM319.757 370.18C319.077 370.18 318.462 370.03 317.912 369.73C317.362 369.42 316.927 368.98 316.607 368.41C316.287 367.83 316.127 367.135 316.127 366.325C316.127 365.525 316.287 364.835 316.607 364.255C316.937 363.675 317.362 363.23 317.882 362.92C318.402 362.61 318.947 362.455 319.517 362.455C320.187 362.455 320.747 362.605 321.197 362.905C321.647 363.195 321.987 363.605 322.217 364.135C322.447 364.655 322.562 365.26 322.562 365.95C322.562 366.31 322.537 366.59 322.487 366.79H317.807C317.887 367.44 318.122 367.945 318.512 368.305C318.902 368.665 319.392 368.845 319.982 368.845C320.302 368.845 320.597 368.8 320.867 368.71C321.147 368.61 321.422 368.475 321.692 368.305L322.277 369.385C321.927 369.615 321.537 369.805 321.107 369.955C320.677 370.105 320.227 370.18 319.757 370.18ZM317.792 365.62H321.062C321.062 365.05 320.937 364.605 320.687 364.285C320.437 363.955 320.062 363.79 319.562 363.79C319.132 363.79 318.747 363.95 318.407 364.27C318.077 364.58 317.872 365.03 317.792 365.62ZM323.909 370V362.635H325.334L325.454 363.625H325.514C325.844 363.305 326.204 363.03 326.594 362.8C326.984 362.57 327.429 362.455 327.929 362.455C328.719 362.455 329.294 362.71 329.654 363.22C330.014 363.73 330.194 364.45 330.194 365.38V370H328.469V365.605C328.469 364.995 328.379 364.565 328.199 364.315C328.019 364.065 327.724 363.94 327.314 363.94C326.994 363.94 326.709 364.02 326.459 364.18C326.219 364.33 325.944 364.555 325.634 364.855V370H323.909Z" fill="#1877F2"/>
</g>
<g filter="url(#filter6_d_37_1034)">
<g clip-path="url(#clip0_37_1034)">
<g clip-path="url(#clip1_37_1034)">
<path d="M124 450H100C95.5818 450 92 453.582 92 458V482C92 486.418 95.5818 490 100 490H124C128.418 490 132 486.418 132 482V458C132 453.582 128.418 450 124 450Z" fill="#0A66C2"/>
<mask id="mask0_37_1034" style="mask-type:luminance" maskUnits="userSpaceOnUse" x="100" y="458" width="24" height="24">
<path d="M123.667 458.334H100.333V481.667H123.667V458.334Z" fill="white"/>
</mask>
<g mask="url(#mask0_37_1034)">
<path d="M100.333 461.447C100.333 460.696 100.596 460.076 101.122 459.588C101.647 459.1 102.33 458.856 103.171 458.856C103.997 458.856 104.665 459.097 105.176 459.577C105.701 460.073 105.964 460.718 105.964 461.514C105.964 462.235 105.709 462.835 105.198 463.316C104.673 463.811 103.982 464.059 103.126 464.059H103.104C102.278 464.059 101.61 463.811 101.099 463.316C100.589 462.82 100.333 462.197 100.333 461.447ZM100.626 481.154V466.109H105.626V481.154H100.626ZM108.397 481.154H113.397V472.753C113.397 472.227 113.457 471.822 113.577 471.537C113.787 471.026 114.106 470.594 114.534 470.242C114.962 469.889 115.499 469.712 116.144 469.712C117.826 469.712 118.667 470.846 118.667 473.113V481.154H123.667V472.528C123.667 470.305 123.141 468.62 122.09 467.471C121.039 466.323 119.65 465.748 117.924 465.748C115.987 465.748 114.478 466.582 113.397 468.248V468.293H113.374L113.397 468.248V466.109H108.397C108.427 466.589 108.442 468.083 108.442 470.591C108.442 473.098 108.427 476.619 108.397 481.154Z" fill="white"/>
</g>
</g>
</g>
</g>
<g filter="url(#filter7_d_37_1034)">
<rect x="122.5" y="440" width="20" height="20" rx="10" fill="white" shape-rendering="crispEdges"/>
<rect x="122.7" y="440.2" width="19.6" height="19.6" rx="9.8" stroke="#E7E7E7" stroke-width="0.4" shape-rendering="crispEdges"/>
<path d="M130.786 454.5L126.5 450.181L127.709 448.964L130.786 452.056L137.291 445.5L138.5 446.726L130.786 454.5Z" fill="black"/>
</g>
<g filter="url(#filter8_d_37_1034)">
<g clip-path="url(#clip2_37_1034)">
<g clip-path="url(#clip3_37_1034)">
<path d="M221 450H201C195.477 450 191 454.477 191 460V480C191 485.523 195.477 490 201 490H221C226.523 490 231 485.523 231 480V460C231 454.477 226.523 450 221 450Z" fill="black"/>
<path d="M212.905 468.47L220.351 460H218.587L212.118 467.352L206.956 460H201L208.809 471.119L201 480H202.764L209.591 472.234L215.044 480H221L212.905 468.47ZM210.488 471.217L209.695 470.109L203.4 461.301H206.111L211.192 468.412L211.981 469.52L218.586 478.762H215.876L210.488 471.217Z" fill="white"/>
</g>
</g>
</g>
<g filter="url(#filter9_d_37_1034)">
<rect x="221.5" y="440" width="20" height="20" rx="10" fill="white" shape-rendering="crispEdges"/>
<rect x="221.7" y="440.2" width="19.6" height="19.6" rx="9.8" stroke="#E7E7E7" stroke-width="0.4" shape-rendering="crispEdges"/>
<path d="M229.786 454.5L225.5 450.181L226.709 448.964L229.786 452.056L236.291 445.5L237.5 446.726L229.786 454.5Z" fill="black"/>
</g>
<g filter="url(#filter10_d_37_1034)">
<g clip-path="url(#clip4_37_1034)">
<g clip-path="url(#clip5_37_1034)">
<mask id="mask1_37_1034" style="mask-type:luminance" maskUnits="userSpaceOnUse" x="290" y="450" width="40" height="40">
<path d="M322 450H298C293.582 450 290 453.582 290 458V482C290 486.418 293.582 490 298 490H322C326.418 490 330 486.418 330 482V458C330 453.582 326.418 450 322 450Z" fill="white"/>
</mask>
<g mask="url(#mask1_37_1034)">
<path d="M322 450H298C293.582 450 290 453.582 290 458V482C290 486.418 293.582 490 298 490H322C326.418 490 330 486.418 330 482V458C330 453.582 326.418 450 322 450Z" fill="#1877F2"/>
<path d="M317.785 475.781L318.672 470H313.125V466.25C313.125 464.668 313.898 463.125 316.383 463.125H318.906V458.203C318.906 458.203 316.617 457.812 314.43 457.812C309.859 457.812 306.875 460.582 306.875 465.594V470H301.797V475.781H306.875V489.758C307.895 489.918 308.937 490 310 490C311.062 490 312.105 489.918 313.125 489.758V475.781H317.785Z" fill="white"/>
</g>
</g>
</g>
</g>
<g filter="url(#filter11_d_37_1034)">
<rect x="320.5" y="440" width="20" height="20" rx="10" fill="white" shape-rendering="crispEdges"/>
<rect x="320.7" y="440.2" width="19.6" height="19.6" rx="9.8" stroke="#E7E7E7" stroke-width="0.4" shape-rendering="crispEdges"/>
<path d="M328.786 454.5L324.5 450.181L325.709 448.964L328.786 452.056L335.291 445.5L336.5 446.726L328.786 454.5Z" fill="black"/>
</g>
<g filter="url(#filter12_d_37_1034)">
<g clip-path="url(#clip6_37_1034)">
<g clip-path="url(#clip7_37_1034)">
<path d="M421 450H397C392.582 450 389 453.582 389 458V482C389 486.418 392.582 490 397 490H421C425.418 490 429 486.418 429 482V458C429 453.582 425.418 450 421 450Z" fill="#1877F2"/>
<path d="M421 450H397C392.582 450 389 453.582 389 458V482C389 486.418 392.582 490 397 490H421C425.418 490 429 486.418 429 482V458C429 453.582 425.418 450 421 450Z" fill="url(#paint0_radial_37_1034)"/>
<path d="M404.604 470C404.604 467.571 406.572 465.602 409 465.602C411.429 465.602 413.398 467.571 413.398 470C413.398 472.428 411.429 474.397 409 474.397C406.572 474.397 404.604 472.428 404.604 470ZM402.227 470C402.227 473.741 405.259 476.774 409 476.774C412.741 476.774 415.774 473.741 415.774 470C415.774 466.259 412.741 463.226 409 463.226C405.259 463.226 402.227 466.258 402.227 470ZM414.459 462.957C414.459 463.27 414.552 463.577 414.726 463.837C414.9 464.097 415.147 464.3 415.436 464.42C415.725 464.54 416.043 464.572 416.351 464.511C416.658 464.45 416.94 464.299 417.161 464.078C417.383 463.857 417.534 463.575 417.595 463.268C417.656 462.96 417.625 462.642 417.505 462.353C417.385 462.064 417.183 461.816 416.922 461.642C416.662 461.468 416.356 461.375 416.043 461.375H416.042C415.623 461.375 415.22 461.542 414.923 461.839C414.627 462.135 414.46 462.538 414.459 462.957ZM403.671 480.738C402.385 480.679 401.686 480.465 401.221 480.284C400.605 480.044 400.166 479.758 399.704 479.297C399.242 478.836 398.956 478.397 398.717 477.781C398.536 477.316 398.322 476.617 398.263 475.331C398.199 473.94 398.187 473.523 398.187 470C398.187 466.477 398.2 466.061 398.263 464.669C398.322 463.383 398.538 462.685 398.717 462.219C398.957 461.603 399.242 461.164 399.704 460.702C400.165 460.24 400.604 459.954 401.221 459.715C401.685 459.534 402.385 459.32 403.671 459.261C405.061 459.197 405.479 459.185 409 459.185C412.522 459.185 412.94 459.198 414.331 459.262C415.617 459.32 416.315 459.536 416.781 459.715C417.397 459.954 417.836 460.241 418.298 460.702C418.76 461.163 419.045 461.604 419.285 462.219C419.466 462.684 419.68 463.383 419.739 464.669C419.803 466.061 419.816 466.477 419.816 470C419.816 473.523 419.803 473.94 419.739 475.331C419.68 476.617 419.465 477.316 419.285 477.781C419.045 478.397 418.76 478.836 418.298 479.297C417.837 479.758 417.397 480.044 416.781 480.284C416.317 480.465 415.617 480.679 414.331 480.738C412.941 480.802 412.523 480.815 409 480.815C405.477 480.815 405.061 480.801 403.671 480.738ZM403.562 456.888C402.157 456.952 401.198 457.175 400.36 457.501C399.492 457.837 398.757 458.289 398.023 459.022C397.289 459.755 396.838 460.491 396.501 461.359C396.175 462.198 395.952 463.157 395.888 464.561C395.824 465.968 395.809 466.417 395.809 470C395.809 473.582 395.824 474.032 395.888 475.438C395.952 476.843 396.175 477.802 396.501 478.64C396.838 479.508 397.289 480.244 398.023 480.977C398.757 481.71 399.491 482.161 400.36 482.499C401.199 482.825 402.157 483.048 403.562 483.112C404.969 483.176 405.418 483.191 409 483.191C412.583 483.191 413.032 483.177 414.439 483.112C415.843 483.048 416.802 482.825 417.641 482.499C418.508 482.161 419.244 481.71 419.978 480.977C420.712 480.244 421.162 479.508 421.499 478.64C421.825 477.802 422.049 476.843 422.112 475.438C422.176 474.031 422.191 473.582 422.191 470C422.191 466.417 422.176 465.968 422.112 464.561C422.048 463.157 421.825 462.197 421.499 461.359C421.162 460.492 420.711 459.756 419.978 459.022C419.245 458.288 418.508 457.837 417.642 457.501C416.802 457.175 415.843 456.951 414.44 456.888C413.033 456.824 412.584 456.808 409.002 456.808C405.42 456.808 404.969 456.823 403.562 456.888Z" fill="white"/>
</g>
</g>
</g>
<g filter="url(#filter13_d_37_1034)">
<rect x="419.5" y="440" width="20" height="20" rx="10" fill="white" shape-rendering="crispEdges"/>
<rect x="419.7" y="440.2" width="19.6" height="19.6" rx="9.8" stroke="#E7E7E7" stroke-width="0.4" shape-rendering="crispEdges"/>
<path d="M427.786 454.5L423.5 450.181L424.709 448.964L427.786 452.056L434.291 445.5L435.5 446.726L427.786 454.5Z" fill="black"/>
</g>
<g filter="url(#filter14_d_37_1034)">
<g clip-path="url(#clip8_37_1034)">
<g clip-path="url(#clip9_37_1034)">
<path d="M520 450H496C491.582 450 488 453.582 488 458V482C488 486.418 491.582 490 496 490H520C524.418 490 528 486.418 528 482V458C528 453.582 524.418 450 520 450Z" fill="url(#paint1_linear_37_1034)"/>
<path fill-rule="evenodd" clip-rule="evenodd" d="M517.339 460.542C514.844 458.044 511.526 456.668 507.991 456.667C500.708 456.667 494.78 462.594 494.777 469.88C494.776 472.209 495.385 474.482 496.541 476.486L494.667 483.333L501.671 481.496C503.602 482.548 505.775 483.103 507.986 483.104H507.992C515.274 483.104 521.203 477.176 521.206 469.89C521.207 466.359 519.834 463.039 517.339 460.542ZM507.992 480.872H507.987C506.016 480.872 504.083 480.342 502.397 479.341L501.996 479.104L497.839 480.194L498.949 476.141L498.688 475.725C497.588 473.977 497.007 471.956 497.008 469.88C497.011 463.825 501.938 458.898 507.996 458.898C510.929 458.899 513.687 460.043 515.761 462.119C517.834 464.195 518.976 466.955 518.974 469.889C518.972 475.945 514.045 480.872 507.992 480.872ZM514.016 472.647C513.686 472.481 512.063 471.683 511.76 471.572C511.457 471.462 511.237 471.407 511.017 471.738C510.797 472.068 510.164 472.812 509.971 473.032C509.779 473.253 509.586 473.28 509.256 473.115C508.926 472.95 507.862 472.601 506.601 471.476C505.619 470.601 504.957 469.52 504.764 469.189C504.572 468.858 504.744 468.68 504.909 468.515C505.058 468.367 505.239 468.129 505.404 467.937C505.569 467.744 505.624 467.606 505.735 467.386C505.845 467.165 505.79 466.972 505.707 466.807C505.624 466.642 504.964 465.017 504.689 464.356C504.421 463.712 504.149 463.799 503.946 463.789C503.754 463.779 503.533 463.777 503.313 463.777C503.093 463.777 502.735 463.86 502.433 464.19C502.13 464.521 501.277 465.32 501.277 466.945C501.277 468.57 502.46 470.14 502.625 470.36C502.79 470.581 504.954 473.916 508.266 475.346C509.053 475.686 509.668 475.889 510.148 476.041C510.939 476.293 511.659 476.257 512.228 476.172C512.862 476.077 514.181 475.374 514.456 474.602C514.731 473.831 514.731 473.17 514.649 473.032C514.566 472.895 514.346 472.812 514.016 472.647Z" fill="white"/>
</g>
</g>
</g>
<g filter="url(#filter15_d_37_1034)">
<rect x="518.5" y="440" width="20" height="20" rx="10" fill="white" shape-rendering="crispEdges"/>
<rect x="518.7" y="440.2" width="19.6" height="19.6" rx="9.8" stroke="#E7E7E7" stroke-width="0.4" shape-rendering="crispEdges"/>
<path d="M526.786 454.5L522.5 450.181L523.709 448.964L526.786 452.056L533.291 445.5L534.5 446.726L526.786 454.5Z" fill="black"/>
</g>
<defs>
<filter id="filter0_d_37_1034" x="0.5" y="0" width="205" height="111" filterUnits="userSpaceOnUse" color-interpolation-filters="sRGB">
<feFlood flood-opacity="0" result="BackgroundImageFix"/>
<feColorMatrix in="SourceAlpha" type="matrix" values="0 0 0 0 0 0 0 0 0 0 0 0 0 0 0 0 0 0 127 0" result="hardAlpha"/>
<feOffset dy="10"/>
<feGaussianBlur stdDeviation="10"/>
<feComposite in2="hardAlpha" operator="out"/>
<feColorMatrix type="matrix" values="0 0 0 0 0 0 0 0 0 0 0 0 0 0 0 0 0 0 0.15 0"/>
<feBlend mode="normal" in2="BackgroundImageFix" result="effect1_dropShadow_37_1034"/>
<feBlend mode="normal" in="SourceGraphic" in2="effect1_dropShadow_37_1034" result="shape"/>
</filter>
<filter id="filter1_d_37_1034" x="207.5" y="0" width="205" height="111" filterUnits="userSpaceOnUse" color-interpolation-filters="sRGB">
<feFlood flood-opacity="0" result="BackgroundImageFix"/>
<feColorMatrix in="SourceAlpha" type="matrix" values="0 0 0 0 0 0 0 0 0 0 0 0 0 0 0 0 0 0 127 0" result="hardAlpha"/>
<feOffset dy="10"/>
<feGaussianBlur stdDeviation="10"/>
<feComposite in2="hardAlpha" operator="out"/>
<feColorMatrix type="matrix" values="0 0 0 0 0 0 0 0 0 0 0 0 0 0 0 0 0 0 0.15 0"/>
<feBlend mode="normal" in2="BackgroundImageFix" result="effect1_dropShadow_37_1034"/>
<feBlend mode="normal" in="SourceGraphic" in2="effect1_dropShadow_37_1034" result="shape"/>
</filter>
<filter id="filter2_d_37_1034" x="414.5" y="0" width="205" height="111" filterUnits="userSpaceOnUse" color-interpolation-filters="sRGB">
<feFlood flood-opacity="0" result="BackgroundImageFix"/>
<feColorMatrix in="SourceAlpha" type="matrix" values="0 0 0 0 0 0 0 0 0 0 0 0 0 0 0 0 0 0 127 0" result="hardAlpha"/>
<feOffset dy="10"/>
<feGaussianBlur stdDeviation="10"/>
<feComposite in2="hardAlpha" operator="out"/>
<feColorMatrix type="matrix" values="0 0 0 0 0 0 0 0 0 0 0 0 0 0 0 0 0 0 0.15 0"/>
<feBlend mode="normal" in2="BackgroundImageFix" result="effect1_dropShadow_37_1034"/>
<feBlend mode="normal" in="SourceGraphic" in2="effect1_dropShadow_37_1034" result="shape"/>
</filter>
<filter id="filter3_d_37_1034" x="207.5" y="133" width="205" height="87" filterUnits="userSpaceOnUse" color-interpolation-filters="sRGB">
<feFlood flood-opacity="0" result="BackgroundImageFix"/>
<feColorMatrix in="SourceAlpha" type="matrix" values="0 0 0 0 0 0 0 0 0 0 0 0 0 0 0 0 0 0 127 0" result="hardAlpha"/>
<feOffset dy="10"/>
<feGaussianBlur stdDeviation="10"/>
<feComposite in2="hardAlpha" operator="out"/>
<feColorMatrix type="matrix" values="0 0 0 0 0 0 0 0 0 0 0 0 0 0 0 0 0 0 0.15 0"/>
<feBlend mode="normal" in2="BackgroundImageFix" result="effect1_dropShadow_37_1034"/>
<feBlend mode="normal" in="SourceGraphic" in2="effect1_dropShadow_37_1034" result="shape"/>
</filter>
<filter id="filter4_d_37_1034" x="207.5" y="220" width="205" height="87" filterUnits="userSpaceOnUse" color-interpolation-filters="sRGB">
<feFlood flood-opacity="0" result="BackgroundImageFix"/>
<feColorMatrix in="SourceAlpha" type="matrix" values="0 0 0 0 0 0 0 0 0 0 0 0 0 0 0 0 0 0 127 0" result="hardAlpha"/>
<feOffset dy="10"/>
<feGaussianBlur stdDeviation="10"/>
<feComposite in2="hardAlpha" operator="out"/>
<feColorMatrix type="matrix" values="0 0 0 0 0 0 0 0 0 0 0 0 0 0 0 0 0 0 0.15 0"/>
<feBlend mode="normal" in2="BackgroundImageFix" result="effect1_dropShadow_37_1034"/>
<feBlend mode="normal" in="SourceGraphic" in2="effect1_dropShadow_37_1034" result="shape"/>
</filter>
<filter id="filter5_d_37_1034" x="207.5" y="307" width="205" height="111" filterUnits="userSpaceOnUse" color-interpolation-filters="sRGB">
<feFlood flood-opacity="0" result="BackgroundImageFix"/>
<feColorMatrix in="SourceAlpha" type="matrix" values="0 0 0 0 0 0 0 0 0 0 0 0 0 0 0 0 0 0 127 0" result="hardAlpha"/>
<feOffset dy="10"/>
<feGaussianBlur stdDeviation="10"/>
<feComposite in2="hardAlpha" operator="out"/>
<feColorMatrix type="matrix" values="0 0 0 0 0 0 0 0 0 0 0 0 0 0 0 0 0 0 0.15 0"/>
<feBlend mode="normal" in2="BackgroundImageFix" result="effect1_dropShadow_37_1034"/>
<feBlend mode="normal" in="SourceGraphic" in2="effect1_dropShadow_37_1034" result="shape"/>
</filter>
<filter id="filter6_d_37_1034" x="72" y="445" width="80" height="80" filterUnits="userSpaceOnUse" color-interpolation-filters="sRGB">
<feFlood flood-opacity="0" result="BackgroundImageFix"/>
<feColorMatrix in="SourceAlpha" type="matrix" values="0 0 0 0 0 0 0 0 0 0 0 0 0 0 0 0 0 0 127 0" result="hardAlpha"/>
<feOffset dy="15"/>
<feGaussianBlur stdDeviation="10"/>
<feComposite in2="hardAlpha" operator="out"/>
<feColorMatrix type="matrix" values="0 0 0 0 0 0 0 0 0 0 0 0 0 0 0 0 0 0 0.15 0"/>
<feBlend mode="normal" in2="BackgroundImageFix" result="effect1_dropShadow_37_1034"/>
<feBlend mode="normal" in="SourceGraphic" in2="effect1_dropShadow_37_1034" result="shape"/>
</filter>
<filter id="filter7_d_37_1034" x="112.5" y="434" width="40" height="40" filterUnits="userSpaceOnUse" color-interpolation-filters="sRGB">
<feFlood flood-opacity="0" result="BackgroundImageFix"/>
<feColorMatrix in="SourceAlpha" type="matrix" values="0 0 0 0 0 0 0 0 0 0 0 0 0 0 0 0 0 0 127 0" result="hardAlpha"/>
<feOffset dy="4"/>
<feGaussianBlur stdDeviation="5"/>
<feComposite in2="hardAlpha" operator="out"/>
<feColorMatrix type="matrix" values="0 0 0 0 0 0 0 0 0 0 0 0 0 0 0 0 0 0 0.15 0"/>
<feBlend mode="normal" in2="BackgroundImageFix" result="effect1_dropShadow_37_1034"/>
<feBlend mode="normal" in="SourceGraphic" in2="effect1_dropShadow_37_1034" result="shape"/>
</filter>
<filter id="filter8_d_37_1034" x="171" y="445" width="80" height="80" filterUnits="userSpaceOnUse" color-interpolation-filters="sRGB">
<feFlood flood-opacity="0" result="BackgroundImageFix"/>
<feColorMatrix in="SourceAlpha" type="matrix" values="0 0 0 0 0 0 0 0 0 0 0 0 0 0 0 0 0 0 127 0" result="hardAlpha"/>
<feOffset dy="15"/>
<feGaussianBlur stdDeviation="10"/>
<feComposite in2="hardAlpha" operator="out"/>
<feColorMatrix type="matrix" values="0 0 0 0 0 0 0 0 0 0 0 0 0 0 0 0 0 0 0.15 0"/>
<feBlend mode="normal" in2="BackgroundImageFix" result="effect1_dropShadow_37_1034"/>
<feBlend mode="normal" in="SourceGraphic" in2="effect1_dropShadow_37_1034" result="shape"/>
</filter>
<filter id="filter9_d_37_1034" x="211.5" y="434" width="40" height="40" filterUnits="userSpaceOnUse" color-interpolation-filters="sRGB">
<feFlood flood-opacity="0" result="BackgroundImageFix"/>
<feColorMatrix in="SourceAlpha" type="matrix" values="0 0 0 0 0 0 0 0 0 0 0 0 0 0 0 0 0 0 127 0" result="hardAlpha"/>
<feOffset dy="4"/>
<feGaussianBlur stdDeviation="5"/>
<feComposite in2="hardAlpha" operator="out"/>
<feColorMatrix type="matrix" values="0 0 0 0 0 0 0 0 0 0 0 0 0 0 0 0 0 0 0.15 0"/>
<feBlend mode="normal" in2="BackgroundImageFix" result="effect1_dropShadow_37_1034"/>
<feBlend mode="normal" in="SourceGraphic" in2="effect1_dropShadow_37_1034" result="shape"/>
</filter>
<filter id="filter10_d_37_1034" x="270" y="445" width="80" height="80" filterUnits="userSpaceOnUse" color-interpolation-filters="sRGB">
<feFlood flood-opacity="0" result="BackgroundImageFix"/>
<feColorMatrix in="SourceAlpha" type="matrix" values="0 0 0 0 0 0 0 0 0 0 0 0 0 0 0 0 0 0 127 0" result="hardAlpha"/>
<feOffset dy="15"/>
<feGaussianBlur stdDeviation="10"/>
<feComposite in2="hardAlpha" operator="out"/>
<feColorMatrix type="matrix" values="0 0 0 0 0 0 0 0 0 0 0 0 0 0 0 0 0 0 0.15 0"/>
<feBlend mode="normal" in2="BackgroundImageFix" result="effect1_dropShadow_37_1034"/>
<feBlend mode="normal" in="SourceGraphic" in2="effect1_dropShadow_37_1034" result="shape"/>
</filter>
<filter id="filter11_d_37_1034" x="310.5" y="434" width="40" height="40" filterUnits="userSpaceOnUse" color-interpolation-filters="sRGB">
<feFlood flood-opacity="0" result="BackgroundImageFix"/>
<feColorMatrix in="SourceAlpha" type="matrix" values="0 0 0 0 0 0 0 0 0 0 0 0 0 0 0 0 0 0 127 0" result="hardAlpha"/>
<feOffset dy="4"/>
<feGaussianBlur stdDeviation="5"/>
<feComposite in2="hardAlpha" operator="out"/>
<feColorMatrix type="matrix" values="0 0 0 0 0 0 0 0 0 0 0 0 0 0 0 0 0 0 0.15 0"/>
<feBlend mode="normal" in2="BackgroundImageFix" result="effect1_dropShadow_37_1034"/>
<feBlend mode="normal" in="SourceGraphic" in2="effect1_dropShadow_37_1034" result="shape"/>
</filter>
<filter id="filter12_d_37_1034" x="369" y="445" width="80" height="80" filterUnits="userSpaceOnUse" color-interpolation-filters="sRGB">
<feFlood flood-opacity="0" result="BackgroundImageFix"/>
<feColorMatrix in="SourceAlpha" type="matrix" values="0 0 0 0 0 0 0 0 0 0 0 0 0 0 0 0 0 0 127 0" result="hardAlpha"/>
<feOffset dy="15"/>
<feGaussianBlur stdDeviation="10"/>
<feComposite in2="hardAlpha" operator="out"/>
<feColorMatrix type="matrix" values="0 0 0 0 0 0 0 0 0 0 0 0 0 0 0 0 0 0 0.15 0"/>
<feBlend mode="normal" in2="BackgroundImageFix" result="effect1_dropShadow_37_1034"/>
<feBlend mode="normal" in="SourceGraphic" in2="effect1_dropShadow_37_1034" result="shape"/>
</filter>
<filter id="filter13_d_37_1034" x="409.5" y="434" width="40" height="40" filterUnits="userSpaceOnUse" color-interpolation-filters="sRGB">
<feFlood flood-opacity="0" result="BackgroundImageFix"/>
<feColorMatrix in="SourceAlpha" type="matrix" values="0 0 0 0 0 0 0 0 0 0 0 0 0 0 0 0 0 0 127 0" result="hardAlpha"/>
<feOffset dy="4"/>
<feGaussianBlur stdDeviation="5"/>
<feComposite in2="hardAlpha" operator="out"/>
<feColorMatrix type="matrix" values="0 0 0 0 0 0 0 0 0 0 0 0 0 0 0 0 0 0 0.15 0"/>
<feBlend mode="normal" in2="BackgroundImageFix" result="effect1_dropShadow_37_1034"/>
<feBlend mode="normal" in="SourceGraphic" in2="effect1_dropShadow_37_1034" result="shape"/>
</filter>
<filter id="filter14_d_37_1034" x="468" y="445" width="80" height="80" filterUnits="userSpaceOnUse" color-interpolation-filters="sRGB">
<feFlood flood-opacity="0" result="BackgroundImageFix"/>
<feColorMatrix in="SourceAlpha" type="matrix" values="0 0 0 0 0 0 0 0 0 0 0 0 0 0 0 0 0 0 127 0" result="hardAlpha"/>
<feOffset dy="15"/>
<feGaussianBlur stdDeviation="10"/>
<feComposite in2="hardAlpha" operator="out"/>
<feColorMatrix type="matrix" values="0 0 0 0 0 0 0 0 0 0 0 0 0 0 0 0 0 0 0.15 0"/>
<feBlend mode="normal" in2="BackgroundImageFix" result="effect1_dropShadow_37_1034"/>
<feBlend mode="normal" in="SourceGraphic" in2="effect1_dropShadow_37_1034" result="shape"/>
</filter>
<filter id="filter15_d_37_1034" x="508.5" y="434" width="40" height="40" filterUnits="userSpaceOnUse" color-interpolation-filters="sRGB">
<feFlood flood-opacity="0" result="BackgroundImageFix"/>
<feColorMatrix in="SourceAlpha" type="matrix" values="0 0 0 0 0 0 0 0 0 0 0 0 0 0 0 0 0 0 127 0" result="hardAlpha"/>
<feOffset dy="4"/>
<feGaussianBlur stdDeviation="5"/>
<feComposite in2="hardAlpha" operator="out"/>
<feColorMatrix type="matrix" values="0 0 0 0 0 0 0 0 0 0 0 0 0 0 0 0 0 0 0.15 0"/>
<feBlend mode="normal" in2="BackgroundImageFix" result="effect1_dropShadow_37_1034"/>
<feBlend mode="normal" in="SourceGraphic" in2="effect1_dropShadow_37_1034" result="shape"/>
</filter>
<radialGradient id="paint0_radial_37_1034" cx="0" cy="0" r="1" gradientUnits="userSpaceOnUse" gradientTransform="translate(391.589 489.124) scale(50.7852)">
<stop offset="0.09" stop-color="#FA8F21"/>
<stop offset="0.78" stop-color="#D82D7E"/>
</radialGradient>
<linearGradient id="paint1_linear_37_1034" x1="508" y1="450" x2="508" y2="490" gradientUnits="userSpaceOnUse">
<stop stop-color="#61FD7D"/>
<stop offset="1" stop-color="#26D044"/>
</linearGradient>
<clipPath id="clip0_37_1034">
<rect x="92" y="450" width="40" height="40" rx="10" fill="white"/>
</clipPath>
<clipPath id="clip1_37_1034">
<rect width="40" height="40" fill="white" transform="translate(92 450)"/>
</clipPath>
<clipPath id="clip2_37_1034">
<rect x="191" y="450" width="40" height="40" rx="10" fill="white"/>
</clipPath>
<clipPath id="clip3_37_1034">
<rect width="40" height="40" fill="white" transform="translate(191 450)"/>
</clipPath>
<clipPath id="clip4_37_1034">
<rect x="290" y="450" width="40" height="40" rx="10" fill="white"/>
</clipPath>
<clipPath id="clip5_37_1034">
<rect width="40" height="40" fill="white" transform="translate(290 450)"/>
</clipPath>
<clipPath id="clip6_37_1034">
<rect x="389" y="450" width="40" height="40" rx="10" fill="white"/>
</clipPath>
<clipPath id="clip7_37_1034">
<rect width="40" height="40" fill="white" transform="translate(389 450)"/>
</clipPath>
<clipPath id="clip8_37_1034">
<rect x="488" y="450" width="40" height="40" rx="10" fill="white"/>
</clipPath>
<clipPath id="clip9_37_1034">
<rect width="40" height="40" fill="white" transform="translate(488 450)"/>
</clipPath>
</defs>
</svg>
