<svg width="21" height="20" viewBox="0 0 21 20" fill="none" xmlns="http://www.w3.org/2000/svg">
<path d="M10.3135 0C4.93738 0 0.563477 4.37391 0.563477 9.75C0.563477 15.1261 4.93738 19.5 10.3135 19.5C15.6896 19.5 20.0635 15.1261 20.0635 9.75C20.0635 4.37391 15.6896 0 10.3135 0Z" fill="#8A99AE"/>
<path d="M9.09249 15.5V7.564H11.4445V15.5H9.09249ZM10.2605 6.396C9.86582 6.396 9.54582 6.284 9.30049 6.06C9.05516 5.836 8.93249 5.53733 8.93249 5.164C8.93249 4.79067 9.05516 4.492 9.30049 4.268C9.54582 4.044 9.86582 3.932 10.2605 3.932C10.6552 3.932 10.9752 4.044 11.2205 4.268C11.4658 4.492 11.5885 4.79067 11.5885 5.164C11.5885 5.53733 11.4658 5.836 11.2205 6.06C10.9752 6.284 10.6552 6.396 10.2605 6.396Z" fill="white"/>
</svg>
