<svg width="60" height="60" viewBox="0 0 60 60" fill="none" xmlns="http://www.w3.org/2000/svg">
<path d="M6.42854 32.1428H2.14282" stroke="#64A4FF" stroke-width="4" stroke-linecap="round" stroke-linejoin="round"/>
<path d="M53.5713 32.1428H57.857" stroke="#64A4FF" stroke-width="4" stroke-linecap="round" stroke-linejoin="round"/>
<path d="M46.6675 15.4755L49.6979 12.4451" stroke="#64A4FF" stroke-width="4" stroke-linecap="round" stroke-linejoin="round"/>
<path d="M13.3325 15.4755L10.302 12.4451" stroke="#64A4FF" stroke-width="4" stroke-linecap="round" stroke-linejoin="round"/>
<path d="M30 8.57136V4.28564" stroke="#64A4FF" stroke-width="4" stroke-linecap="round" stroke-linejoin="round"/>
<path d="M29.9999 16.0713C21.1239 16.0713 13.9285 23.2667 13.9285 32.1427C13.9285 38.733 17.8952 44.3969 23.5713 46.877V53.5713C23.5713 54.7546 24.5307 55.7141 25.7142 55.7141H34.2856C35.4691 55.7141 36.4285 54.7546 36.4285 53.5713V46.877C42.1046 44.3969 46.0713 38.733 46.0713 32.1427C46.0713 23.2667 38.8759 16.0713 29.9999 16.0713Z" stroke="#64A4FF" stroke-width="4" stroke-linecap="round" stroke-linejoin="round"/>
</svg>
