<svg width="14" height="15" viewBox="0 0 14 15" fill="none" xmlns="http://www.w3.org/2000/svg">
<g clip-path="url(#clip0_3591_61696)">
<path d="M11.9999 10.8906C10.8382 10.8835 9.6994 10.5676 8.70008 9.97527C7.70077 9.38292 6.87697 8.53546 6.31315 7.51977C5.74934 6.50409 5.46579 5.35673 5.49158 4.19533C5.51737 3.03394 5.85158 1.90029 6.45993 0.910645C4.85711 1.19203 3.41643 2.05998 2.41853 3.34544C1.42063 4.6309 0.936971 6.2418 1.06179 7.86434C1.1866 9.48688 1.91093 11.0048 3.09369 12.1225C4.27645 13.2403 5.83293 13.8777 7.45993 13.9106C8.57306 13.9134 9.66803 13.6286 10.6386 13.0837C11.6093 12.5388 12.4227 11.7524 12.9999 10.8006C12.6692 10.8552 12.335 10.8853 11.9999 10.8906Z" stroke="#14315B" stroke-linecap="round" stroke-linejoin="round"/>
</g>
<defs>
<clipPath id="clip0_3591_61696">
<rect width="14" height="14" fill="white" transform="translate(0 0.410645)"/>
</clipPath>
</defs>
</svg>
