<svg width="60" height="60" viewBox="0 0 60 60" fill="none" xmlns="http://www.w3.org/2000/svg">
<path d="M10.7143 38.5713C15.4481 38.5713 19.2857 34.7338 19.2857 29.9999C19.2857 25.266 15.4481 21.4285 10.7143 21.4285C5.98038 21.4285 2.14282 25.266 2.14282 29.9999C2.14282 34.7338 5.98038 38.5713 10.7143 38.5713Z" stroke="#64A4FF" stroke-width="4" stroke-linecap="round" stroke-linejoin="round"/>
<path d="M49.2858 53.5713C54.0198 53.5713 57.8572 49.7339 57.8572 44.9999C57.8572 40.266 54.0198 36.4285 49.2858 36.4285C44.5518 36.4285 40.7144 40.266 40.7144 44.9999C40.7144 49.7339 44.5518 53.5713 49.2858 53.5713Z" stroke="#64A4FF" stroke-width="4" stroke-linecap="round" stroke-linejoin="round"/>
<path d="M41.296 18.1074L18.7061 26.8924" stroke="#64A4FF" stroke-width="4" stroke-linecap="round" stroke-linejoin="round"/>
<path d="M49.2858 23.5713C54.0198 23.5713 57.8572 19.7338 57.8572 14.9999C57.8572 10.266 54.0198 6.42847 49.2858 6.42847C44.5518 6.42847 40.7144 10.266 40.7144 14.9999C40.7144 19.7338 44.5518 23.5713 49.2858 23.5713Z" stroke="#64A4FF" stroke-width="4" stroke-linecap="round" stroke-linejoin="round"/>
<path d="M18.7061 33.1074L41.296 41.8924" stroke="#64A4FF" stroke-width="4" stroke-linecap="round" stroke-linejoin="round"/>
</svg>
