<svg xmlns="http://www.w3.org/2000/svg" width="357" height="88" viewBox="0 0 357 88" fill="none">
    <path
        d="M354.756 8.39624C355.576 8.51385 356.336 7.94442 356.454 7.12438C356.571 6.30434 356.002 5.54423 355.182 5.42662L354.969 6.91143L354.756 8.39624ZM0.375488 81.3809L0.116749 82.8585C42.3188 90.2488 72.409 87.3632 97.1409 79.2828C121.822 71.2191 141.084 57.9972 161.521 44.9764C181.985 31.9381 203.733 19.0203 233.611 11.2347C263.49 3.44892 301.599 0.772579 354.756 8.39624L354.969 6.91143L355.182 5.42662C301.722 -2.24044 263.2 0.424288 232.855 8.33167C202.508 16.2393 180.437 29.3668 159.909 42.4463C139.352 55.5433 120.448 68.5117 96.2092 76.4311C72.0213 84.3338 42.4384 87.2241 0.634228 79.9034L0.375488 81.3809Z"
        fill="#64A4FF" />
</svg>