<svg width="40" height="40" viewBox="0 0 40 40" fill="none" xmlns="http://www.w3.org/2000/svg">
<mask id="mask0_37_1175" style="mask-type:luminance" maskUnits="userSpaceOnUse" x="0" y="0" width="40" height="40">
<path d="M31.9999 0H8.00011C3.58177 0 0 3.58177 0 8.00011V31.9999C0 36.4182 3.58177 40 8.00011 40H31.9999C36.4182 40 40 36.4182 40 31.9999V8.00011C40 3.58177 36.4182 0 31.9999 0Z" fill="white"/>
</mask>
<g mask="url(#mask0_37_1175)">
<path d="M31.9999 0H8.00011C3.58177 0 0 3.58177 0 8.00011V31.9999C0 36.4182 3.58177 40 8.00011 40H31.9999C36.4182 40 40 36.4182 40 31.9999V8.00011C40 3.58177 36.4182 0 31.9999 0Z" fill="#1877F2"/>
<path d="M27.7852 25.7815L28.6719 20.0002H23.125V16.2502C23.125 14.6682 23.8984 13.1252 26.3828 13.1252H28.9063V8.20338C28.9063 8.20338 26.6172 7.81274 24.4297 7.81274C19.8593 7.81274 16.875 10.5823 16.875 15.594V20.0002H11.7969V25.7815H16.875V39.7581C17.8945 39.9182 18.9375 40.0002 20 40.0002C21.0625 40.0002 22.1055 39.9182 23.125 39.7581V25.7815H27.7852Z" fill="white"/>
</g>
</svg>
