<svg width="51" height="50" viewBox="0 0 51 50" fill="none" xmlns="http://www.w3.org/2000/svg">
<g clip-path="url(#clip0_42_1703)">
<g clip-path="url(#clip1_42_1703)">
<path d="M31.9999 10H8.00011C3.58177 10 0 13.5818 0 18.0001V41.9999C0 46.4182 3.58177 50 8.00011 50H31.9999C36.4182 50 40 46.4182 40 41.9999V18.0001C40 13.5818 36.4182 10 31.9999 10Z" fill="#1877F2"/>
<path d="M31.9999 10H8.00011C3.58177 10 0 13.5818 0 18.0001V41.9999C0 46.4182 3.58177 50 8.00011 50H31.9999C36.4182 50 40 46.4182 40 41.9999V18.0001C40 13.5818 36.4182 10 31.9999 10Z" fill="url(#paint0_radial_42_1703)"/>
<path d="M15.6037 29.9998C15.6037 27.5713 17.5718 25.6022 20.0003 25.6022C22.4287 25.6022 24.3979 27.5713 24.3979 29.9998C24.3979 32.4282 22.4287 34.3973 20.0003 34.3973C17.5718 34.3973 15.6037 32.4282 15.6037 29.9998ZM13.2265 29.9998C13.2265 33.7409 16.2591 36.7735 20.0003 36.7735C23.7415 36.7735 26.7741 33.7409 26.7741 29.9998C26.7741 26.2586 23.7415 23.226 20.0003 23.226C16.2591 23.226 13.2265 26.2584 13.2265 29.9998ZM25.4593 22.9574C25.4592 23.2705 25.5519 23.5766 25.7258 23.837C25.8996 24.0974 26.1468 24.3004 26.436 24.4203C26.7252 24.5402 27.0435 24.5717 27.3505 24.5107C27.6576 24.4498 27.9398 24.2991 28.1612 24.0778C28.3827 23.8565 28.5336 23.5745 28.5948 23.2675C28.656 22.9604 28.6247 22.6421 28.5051 22.3528C28.3854 22.0636 28.1826 21.8162 27.9223 21.6422C27.662 21.4681 27.356 21.3751 27.0429 21.375H27.0423C26.6226 21.3753 26.2202 21.542 25.9234 21.8387C25.6266 22.1354 25.4597 22.5377 25.4593 22.9574ZM14.6709 40.7375C13.3847 40.679 12.6856 40.4648 12.2211 40.2838C11.6052 40.044 11.1658 39.7584 10.7037 39.2971C10.2417 38.8356 9.95572 38.3966 9.71703 37.7807C9.53589 37.3164 9.32166 36.6171 9.2632 35.331C9.19926 33.9405 9.18651 33.5227 9.18651 30C9.18651 26.4772 9.20034 26.0606 9.2632 24.669C9.32177 23.3828 9.5376 22.6849 9.71703 22.2192C9.95681 21.6033 10.2424 21.1639 10.7037 20.7018C11.1651 20.2398 11.6041 19.9538 12.2211 19.7151C12.6855 19.534 13.3847 19.3198 14.6709 19.2613C16.0614 19.1973 16.4791 19.1846 20.0003 19.1846C23.5215 19.1846 23.9396 19.1982 25.3313 19.2615C26.6174 19.3201 27.3153 19.5359 27.7811 19.7153C28.397 19.954 28.8364 20.2407 29.2984 20.702C29.7604 21.1634 30.0454 21.6035 30.2852 22.2194C30.4662 22.6837 30.6805 23.383 30.7389 24.6691C30.8029 26.0608 30.8157 26.4774 30.8157 30.0002C30.8157 33.523 30.8029 33.9396 30.7389 35.3312C30.6804 36.6173 30.4651 37.3164 30.2852 37.7809C30.0454 38.3968 29.7598 38.8362 29.2984 39.2972C28.837 39.7582 28.397 40.0442 27.7811 40.284C27.3167 40.4651 26.6174 40.6793 25.3313 40.7378C23.9408 40.8017 23.5231 40.8145 20.0003 40.8145C16.4775 40.8145 16.061 40.8015 14.6709 40.7375ZM14.5616 16.888C13.1573 16.9519 12.1977 17.1746 11.3596 17.5007C10.4922 17.8374 9.75698 18.2893 9.0228 19.0223C8.28861 19.7553 7.83798 20.4907 7.50123 21.3591C7.17511 22.1977 6.95248 23.1568 6.88848 24.5611C6.82351 25.9677 6.80859 26.4173 6.80859 29.9998C6.80859 33.5822 6.82351 34.0319 6.88848 35.4384C6.95248 36.8428 7.17511 37.8018 7.50123 38.6404C7.83798 39.5078 8.28873 40.2445 9.0228 40.9773C9.75692 41.7099 10.4912 42.1611 11.3596 42.4988C12.1992 42.8249 13.1573 43.0476 14.5616 43.1115C15.9689 43.1755 16.4179 43.1914 20.0003 43.1914C23.5827 43.1914 24.0324 43.1765 25.439 43.1115C26.8434 43.0476 27.8024 42.8249 28.641 42.4988C29.5083 42.1611 30.2436 41.7102 30.9777 40.9773C31.712 40.2442 32.1616 39.5078 32.4994 38.6404C32.8254 37.8018 33.0492 36.8427 33.1121 35.4384C33.176 34.0308 33.1909 33.5822 33.1909 29.9998C33.1909 26.4173 33.176 25.9677 33.1121 24.5611C33.0481 23.1567 32.8254 22.1972 32.4994 21.3591C32.1616 20.4917 31.7108 19.7565 30.9777 19.0223C30.2448 18.2881 29.5083 17.8374 28.642 17.5007C27.8024 17.1746 26.8433 16.9509 25.44 16.888C24.0332 16.8237 23.5838 16.8081 20.0019 16.8081C16.42 16.8081 15.969 16.823 14.5616 16.888Z" fill="white"/>
</g>
</g>
<rect x="30.7" y="0.2" width="19.6" height="19.6" rx="9.8" fill="white"/>
<rect x="30.7" y="0.2" width="19.6" height="19.6" rx="9.8" stroke="#E7E7E7" stroke-width="0.4"/>
<path d="M38.7857 14.5L34.5 10.1814L35.7086 8.96353L38.7857 12.0557L45.2914 5.5L46.5 6.72649L38.7857 14.5Z" fill="black"/>
<defs>
<radialGradient id="paint0_radial_42_1703" cx="0" cy="0" r="1" gradientUnits="userSpaceOnUse" gradientTransform="translate(2.58876 49.1238) scale(50.7852)">
<stop offset="0.09" stop-color="#FA8F21"/>
<stop offset="0.78" stop-color="#D82D7E"/>
</radialGradient>
<clipPath id="clip0_42_1703">
<rect y="10" width="40" height="40" rx="10" fill="white"/>
</clipPath>
<clipPath id="clip1_42_1703">
<rect width="40" height="40" fill="white" transform="translate(0 10)"/>
</clipPath>
</defs>
</svg>
