<svg width="40" height="40" viewBox="0 0 40 40" fill="none" xmlns="http://www.w3.org/2000/svg">
<path d="M31.9999 0H8.00011C3.58177 0 0 3.58177 0 8.00011V31.9999C0 36.4182 3.58177 40 8.00011 40H31.9999C36.4182 40 40 36.4182 40 31.9999V8.00011C40 3.58177 36.4182 0 31.9999 0Z" fill="#1877F2"/>
<path d="M31.9999 0H8.00011C3.58177 0 0 3.58177 0 8.00011V31.9999C0 36.4182 3.58177 40 8.00011 40H31.9999C36.4182 40 40 36.4182 40 31.9999V8.00011C40 3.58177 36.4182 0 31.9999 0Z" fill="url(#paint0_radial_37_1182)"/>
<path d="M15.6037 19.9998C15.6037 17.5713 17.5718 15.6022 20.0003 15.6022C22.4287 15.6022 24.3979 17.5713 24.3979 19.9998C24.3979 22.4282 22.4287 24.3973 20.0003 24.3973C17.5718 24.3973 15.6037 22.4282 15.6037 19.9998ZM13.2265 19.9998C13.2265 23.7409 16.2591 26.7735 20.0003 26.7735C23.7415 26.7735 26.7741 23.7409 26.7741 19.9998C26.7741 16.2586 23.7415 13.226 20.0003 13.226C16.2591 13.226 13.2265 16.2584 13.2265 19.9998ZM25.4593 12.9574C25.4592 13.2705 25.5519 13.5766 25.7258 13.837C25.8996 14.0974 26.1468 14.3004 26.436 14.4203C26.7252 14.5402 27.0435 14.5717 27.3505 14.5107C27.6576 14.4498 27.9398 14.2991 28.1612 14.0778C28.3827 13.8565 28.5336 13.5745 28.5948 13.2675C28.656 12.9604 28.6247 12.6421 28.5051 12.3528C28.3854 12.0636 28.1826 11.8162 27.9223 11.6422C27.662 11.4681 27.356 11.3751 27.0429 11.375H27.0423C26.6226 11.3753 26.2202 11.542 25.9234 11.8387C25.6266 12.1354 25.4597 12.5377 25.4593 12.9574ZM14.6709 30.7375C13.3847 30.679 12.6856 30.4648 12.2211 30.2838C11.6052 30.044 11.1658 29.7584 10.7037 29.2971C10.2417 28.8356 9.95572 28.3966 9.71703 27.7807C9.53589 27.3164 9.32166 26.6171 9.2632 25.331C9.19926 23.9405 9.18651 23.5227 9.18651 20C9.18651 16.4772 9.20034 16.0606 9.2632 14.669C9.32177 13.3828 9.5376 12.6849 9.71703 12.2192C9.95681 11.6033 10.2424 11.1639 10.7037 10.7018C11.1651 10.2398 11.6041 9.95381 12.2211 9.71512C12.6855 9.53403 13.3847 9.3198 14.6709 9.26128C16.0614 9.19734 16.4791 9.1846 20.0003 9.1846C23.5215 9.1846 23.9396 9.1982 25.3313 9.26151C26.6174 9.32008 27.3153 9.53592 27.7811 9.71529C28.397 9.95404 28.8364 10.2407 29.2984 10.702C29.7604 11.1634 30.0454 11.6035 30.2852 12.2194C30.4662 12.6837 30.6805 13.383 30.7389 14.6691C30.8029 16.0608 30.8157 16.4774 30.8157 20.0002C30.8157 23.523 30.8029 23.9396 30.7389 25.3312C30.6804 26.6173 30.4651 27.3164 30.2852 27.7809C30.0454 28.3968 29.7598 28.8362 29.2984 29.2972C28.837 29.7582 28.397 30.0442 27.7811 30.284C27.3167 30.4651 26.6174 30.6793 25.3313 30.7378C23.9408 30.8017 23.5231 30.8145 20.0003 30.8145C16.4775 30.8145 16.061 30.8015 14.6709 30.7375ZM14.5616 6.88799C13.1573 6.95194 12.1977 7.17462 11.3596 7.50069C10.4922 7.83743 9.75698 8.28927 9.0228 9.02225C8.28861 9.75529 7.83798 10.4907 7.50123 11.3591C7.17511 12.1977 6.95248 13.1568 6.88848 14.5611C6.82351 15.9677 6.80859 16.4173 6.80859 19.9998C6.80859 23.5822 6.82351 24.0319 6.88848 25.4384C6.95248 26.8428 7.17511 27.8018 7.50123 28.6404C7.83798 29.5078 8.28873 30.2445 9.0228 30.9773C9.75692 31.7099 10.4912 32.1611 11.3596 32.4988C12.1992 32.8249 13.1573 33.0476 14.5616 33.1115C15.9689 33.1755 16.4179 33.1914 20.0003 33.1914C23.5827 33.1914 24.0324 33.1765 25.439 33.1115C26.8434 33.0476 27.8024 32.8249 28.641 32.4988C29.5083 32.1611 30.2436 31.7102 30.9777 30.9773C31.712 30.2442 32.1616 29.5078 32.4994 28.6404C32.8254 27.8018 33.0492 26.8427 33.1121 25.4384C33.176 24.0308 33.1909 23.5822 33.1909 19.9998C33.1909 16.4173 33.176 15.9677 33.1121 14.5611C33.0481 13.1567 32.8254 12.1972 32.4994 11.3591C32.1616 10.4917 31.7108 9.75649 30.9777 9.02225C30.2448 8.28807 29.5083 7.83743 28.642 7.50069C27.8024 7.17462 26.8433 6.95085 25.44 6.88799C24.0332 6.82371 23.5838 6.80811 20.0019 6.80811C16.42 6.80811 15.969 6.82296 14.5616 6.88799Z" fill="white"/>
<defs>
<radialGradient id="paint0_radial_37_1182" cx="0" cy="0" r="1" gradientUnits="userSpaceOnUse" gradientTransform="translate(2.58876 39.1238) scale(50.7852)">
<stop offset="0.09" stop-color="#FA8F21"/>
<stop offset="0.78" stop-color="#D82D7E"/>
</radialGradient>
</defs>
</svg>
