<svg width="40" height="40" viewBox="0 0 40 40" fill="none" xmlns="http://www.w3.org/2000/svg">
<g clip-path="url(#clip0_37_1186)">
<path d="M31.9999 0H8.00011C3.58177 0 0 3.58177 0 8.00011V31.9999C0 36.4182 3.58177 40 8.00011 40H31.9999C36.4182 40 40 36.4182 40 31.9999V8.00011C40 3.58177 36.4182 0 31.9999 0Z" fill="#0A66C2"/>
<mask id="mask0_37_1186" style="mask-type:luminance" maskUnits="userSpaceOnUse" x="8" y="8" width="24" height="24">
<path d="M31.6669 8.33374H8.3335V31.6671H31.6669V8.33374Z" fill="white"/>
</mask>
<g mask="url(#mask0_37_1186)">
<path d="M8.3335 11.4461C8.3335 10.6953 8.59624 10.0759 9.12174 9.58797C9.64729 9.09996 10.3305 8.85596 11.1713 8.85596C11.9971 8.85596 12.6653 9.09619 13.1758 9.57671C13.7013 10.0722 13.9641 10.7178 13.9641 11.5137C13.9641 12.2343 13.7088 12.8349 13.1984 13.3154C12.6728 13.8109 11.9821 14.0587 11.1263 14.0587H11.1038C10.2779 14.0587 9.60974 13.8109 9.09922 13.3154C8.5887 12.82 8.3335 12.1968 8.3335 11.4461ZM8.62624 31.1533V16.1082H13.6263V31.1533H8.62624ZM16.3965 31.1533H21.3965V22.7524C21.3965 22.2268 21.4566 21.8215 21.5767 21.5361C21.7869 21.0257 22.106 20.594 22.5339 20.2411C22.9619 19.8883 23.4986 19.7118 24.1443 19.7118C25.826 19.7118 26.6668 20.8454 26.6668 23.1127V31.1533H31.6668V22.5272C31.6668 20.3049 31.1413 18.6195 30.0903 17.4708C29.0392 16.3222 27.6503 15.7479 25.9236 15.7479C23.9866 15.7479 22.4776 16.5812 21.3965 18.2479V18.2929H21.374L21.3965 18.2479V16.1082H16.3965C16.4266 16.5887 16.4416 18.0827 16.4416 20.5902C16.4416 23.0977 16.4266 26.6187 16.3965 31.1533Z" fill="white"/>
</g>
</g>
<defs>
<clipPath id="clip0_37_1186">
<rect width="40" height="40" fill="white"/>
</clipPath>
</defs>
</svg>
