<svg width="51" height="50" viewBox="0 0 51 50" fill="none" xmlns="http://www.w3.org/2000/svg">
<g clip-path="url(#clip0_42_1688)">
<g clip-path="url(#clip1_42_1688)">
<path d="M31.9999 10H8.00011C3.58177 10 0 13.5818 0 18.0001V41.9999C0 46.4182 3.58177 50 8.00011 50H31.9999C36.4182 50 40 46.4182 40 41.9999V18.0001C40 13.5818 36.4182 10 31.9999 10Z" fill="#0A66C2"/>
<mask id="mask0_42_1688" style="mask-type:luminance" maskUnits="userSpaceOnUse" x="8" y="18" width="24" height="24">
<path d="M31.6669 18.334H8.3335V41.6673H31.6669V18.334Z" fill="white"/>
</mask>
<g mask="url(#mask0_42_1688)">
<path d="M8.3335 21.4465C8.3335 20.6958 8.59624 20.0764 9.12174 19.5885C9.64729 19.1004 10.3305 18.8564 11.1713 18.8564C11.9971 18.8564 12.6653 19.0967 13.1758 19.5772C13.7013 20.0727 13.9641 20.7183 13.9641 21.5141C13.9641 22.2348 13.7088 22.8354 13.1984 23.3159C12.6728 23.8114 11.9821 24.0591 11.1263 24.0591H11.1038C10.2779 24.0591 9.60974 23.8114 9.09922 23.3159C8.5887 22.8204 8.3335 22.1973 8.3335 21.4465ZM8.62624 41.1538V26.1087H13.6263V41.1538H8.62624ZM16.3965 41.1538H21.3965V32.7529C21.3965 32.2273 21.4566 31.8219 21.5767 31.5366C21.7869 31.0262 22.106 30.5944 22.5339 30.2416C22.9619 29.8888 23.4986 29.7123 24.1443 29.7123C25.826 29.7123 26.6668 30.8459 26.6668 33.1132V41.1538H31.6668V32.5277C31.6668 30.3054 31.1413 28.62 30.0903 27.4713C29.0392 26.3227 27.6503 25.7484 25.9236 25.7484C23.9866 25.7484 22.4776 26.5817 21.3965 28.2484V28.2934H21.374L21.3965 28.2484V26.1087H16.3965C16.4266 26.5892 16.4416 28.0832 16.4416 30.5907C16.4416 33.0982 16.4266 36.6192 16.3965 41.1538Z" fill="white"/>
</g>
</g>
</g>
<rect x="30.7" y="0.2" width="19.6" height="19.6" rx="9.8" fill="white"/>
<rect x="30.7" y="0.2" width="19.6" height="19.6" rx="9.8" stroke="#E7E7E7" stroke-width="0.4"/>
<path d="M38.7857 14.5L34.5 10.1814L35.7086 8.96353L38.7857 12.0557L45.2914 5.5L46.5 6.72649L38.7857 14.5Z" fill="black"/>
<defs>
<clipPath id="clip0_42_1688">
<rect y="10" width="40" height="40" rx="10" fill="white"/>
</clipPath>
<clipPath id="clip1_42_1688">
<rect width="40" height="40" fill="white" transform="translate(0 10)"/>
</clipPath>
</defs>
</svg>
