<svg width="51" height="50" viewBox="0 0 51 50" fill="none" xmlns="http://www.w3.org/2000/svg">
<g clip-path="url(#clip0_42_1708)">
<g clip-path="url(#clip1_42_1708)">
<path d="M31.9999 10H8.00011C3.58177 10 0 13.5818 0 18.0001V41.9999C0 46.4182 3.58177 50 8.00011 50H31.9999C36.4182 50 40 46.4182 40 41.9999V18.0001C40 13.5818 36.4182 10 31.9999 10Z" fill="url(#paint0_linear_42_1708)"/>
<path fill-rule="evenodd" clip-rule="evenodd" d="M29.3388 20.5419C26.844 18.0442 23.5262 16.668 19.9914 16.6665C12.708 16.6665 6.78016 22.594 6.77724 29.8797C6.77635 32.2086 7.3847 34.4818 8.54113 36.4858L6.6665 43.3332L13.6715 41.4957C15.6015 42.5484 17.7746 43.1033 19.9861 43.1041H19.9916C27.2742 43.1041 33.2026 37.1758 33.2056 29.89C33.2069 26.3594 31.8336 23.0395 29.3388 20.5419ZM19.9916 40.8724H19.9871C18.0164 40.8717 16.0834 40.3422 14.3972 39.3415L13.9961 39.1036L9.8392 40.1939L10.9487 36.141L10.6876 35.7253C9.58823 33.9768 9.00747 31.9557 9.00836 29.8803C9.01078 23.8248 13.9377 18.8983 19.996 18.8983C22.9294 18.8993 25.6872 20.0431 27.7608 22.1193C29.8344 24.1953 30.9755 26.9547 30.9744 29.8894C30.972 35.9454 26.0451 40.8724 19.9916 40.8724ZM26.0159 32.6466C25.6858 32.4814 24.0626 31.6826 23.7599 31.5724C23.4573 31.4624 23.2371 31.4072 23.017 31.7378C22.797 32.0684 22.1641 32.812 21.9715 33.0324C21.7789 33.2526 21.5862 33.2803 21.2562 33.1149C20.9259 32.9498 19.8621 32.6011 18.601 31.4761C17.6195 30.6007 16.9568 29.5195 16.7642 29.1888C16.5716 28.8583 16.7436 28.6796 16.909 28.515C17.0575 28.367 17.2392 28.1293 17.4043 27.9365C17.5695 27.7438 17.6244 27.606 17.7345 27.3857C17.8446 27.1653 17.7896 26.9725 17.7069 26.8073C17.6244 26.6419 16.9641 25.0167 16.6889 24.3556C16.4209 23.7119 16.1487 23.799 15.9461 23.7888C15.7537 23.7793 15.5334 23.7771 15.3132 23.7771C15.0931 23.7771 14.7355 23.8598 14.4328 24.1903C14.1302 24.5209 13.2772 25.3197 13.2772 26.9449C13.2772 28.5701 14.4602 30.1399 14.6254 30.3604C14.7904 30.5807 16.9536 33.9156 20.2657 35.3459C21.0533 35.6862 21.6684 35.8892 22.1479 36.0415C22.939 36.2928 23.6587 36.2573 24.2275 36.1723C24.8619 36.0775 26.181 35.3735 26.4561 34.6023C26.7312 33.831 26.7312 33.1699 26.6487 33.0322C26.5662 32.8946 26.3461 32.812 26.0159 32.6466Z" fill="white"/>
</g>
</g>
<rect x="30.7" y="0.2" width="19.6" height="19.6" rx="9.8" fill="white"/>
<rect x="30.7" y="0.2" width="19.6" height="19.6" rx="9.8" stroke="#E7E7E7" stroke-width="0.4"/>
<path d="M38.7857 14.5L34.5 10.1814L35.7086 8.96353L38.7857 12.0557L45.2914 5.5L46.5 6.72649L38.7857 14.5Z" fill="black"/>
<defs>
<linearGradient id="paint0_linear_42_1708" x1="20" y1="10" x2="20" y2="50" gradientUnits="userSpaceOnUse">
<stop stop-color="#61FD7D"/>
<stop offset="1" stop-color="#26D044"/>
</linearGradient>
<clipPath id="clip0_42_1708">
<rect y="10" width="40" height="40" rx="10" fill="white"/>
</clipPath>
<clipPath id="clip1_42_1708">
<rect width="40" height="40" fill="white" transform="translate(0 10)"/>
</clipPath>
</defs>
</svg>
