<svg width="40" height="40" viewBox="0 0 40 40" fill="none" xmlns="http://www.w3.org/2000/svg">
<g clip-path="url(#clip0_37_1194)">
<path d="M31.9999 0H8.00011C3.58177 0 0 3.58177 0 8.00011V31.9999C0 36.4182 3.58177 40 8.00011 40H31.9999C36.4182 40 40 36.4182 40 31.9999V8.00011C40 3.58177 36.4182 0 31.9999 0Z" fill="url(#paint0_linear_37_1194)"/>
<path fill-rule="evenodd" clip-rule="evenodd" d="M29.3388 10.5421C26.844 8.0444 23.5262 6.66827 19.9914 6.66675C12.708 6.66675 6.78016 12.5942 6.77724 19.8799C6.77635 22.2088 7.3847 24.482 8.54113 26.4861L6.6665 33.3334L13.6715 31.4959C15.6015 32.5486 17.7746 33.1035 19.9861 33.1043H19.9916C27.2742 33.1043 33.2026 27.1761 33.2056 19.8902C33.2069 16.3596 31.8336 13.0397 29.3388 10.5421ZM19.9916 30.8727H19.9871C18.0164 30.8719 16.0834 30.3424 14.3972 29.3417L13.9961 29.1038L9.8392 30.1942L10.9487 26.1413L10.6876 25.7256C9.58823 23.977 9.00747 21.956 9.00836 19.8806C9.01078 13.8251 13.9377 8.89851 19.996 8.89851C22.9294 8.89952 25.6872 10.0434 27.7608 12.1195C29.8344 14.1955 30.9755 16.9549 30.9744 19.8896C30.972 25.9456 26.0451 30.8727 19.9916 30.8727ZM26.0159 22.6468C25.6858 22.4817 24.0626 21.6829 23.7599 21.5726C23.4573 21.4627 23.2371 21.4075 23.017 21.738C22.797 22.0686 22.1641 22.8122 21.9715 23.0327C21.7789 23.2529 21.5862 23.2806 21.2562 23.1152C20.9259 22.95 19.8621 22.6013 18.601 21.4764C17.6195 20.6009 16.9568 19.5198 16.7642 19.1891C16.5716 18.8585 16.7436 18.6799 16.909 18.5153C17.0575 18.3673 17.2392 18.1295 17.4043 17.9368C17.5695 17.744 17.6244 17.6062 17.7345 17.3859C17.8446 17.1656 17.7896 16.9727 17.7069 16.8076C17.6244 16.6421 16.9641 15.017 16.6889 14.3558C16.4209 13.7122 16.1487 13.7992 15.9461 13.7891C15.7537 13.7795 15.5334 13.7774 15.3132 13.7774C15.0931 13.7774 14.7355 13.86 14.4328 14.1906C14.1302 14.5211 13.2772 15.3199 13.2772 16.9451C13.2772 18.5703 14.4602 20.1402 14.6254 20.3606C14.7904 20.581 16.9536 23.9159 20.2657 25.3462C21.0533 25.6864 21.6684 25.8894 22.1479 26.0417C22.939 26.2931 23.6587 26.2575 24.2275 26.1726C24.8619 26.0777 26.181 25.3738 26.4561 24.6026C26.7312 23.8312 26.7312 23.1701 26.6487 23.0324C26.5662 22.8949 26.3461 22.8122 26.0159 22.6468Z" fill="white"/>
</g>
<defs>
<linearGradient id="paint0_linear_37_1194" x1="20" y1="0" x2="20" y2="40" gradientUnits="userSpaceOnUse">
<stop stop-color="#61FD7D"/>
<stop offset="1" stop-color="#26D044"/>
</linearGradient>
<clipPath id="clip0_37_1194">
<rect width="40" height="40" fill="white"/>
</clipPath>
</defs>
</svg>
