<svg width="40" height="40" viewBox="0 0 40 40" fill="none" xmlns="http://www.w3.org/2000/svg">
<g clip-path="url(#clip0_37_1203)">
<path d="M30 0H9.99998C4.47714 0 0 4.47714 0 9.99998V30C0 35.5229 4.47714 40 9.99998 40H30C35.5229 40 40 35.5229 40 30V9.99998C40 4.47714 35.5229 0 30 0Z" fill="black"/>
<path d="M21.905 18.4695L29.3512 10H27.5869L21.1184 17.3524L15.9558 10H10L17.8086 21.1192L10 30H11.7643L18.591 22.2337L24.0442 30H30L21.905 18.4695ZM19.4878 21.2167L18.6953 20.1088L12.4005 11.3015H15.1108L20.1925 18.4119L20.9815 19.5198L27.5861 28.762H24.8758L19.4878 21.2167Z" fill="white"/>
</g>
<defs>
<clipPath id="clip0_37_1203">
<rect width="40" height="40" fill="white"/>
</clipPath>
</defs>
</svg>
