<?xml version="1.0" encoding="UTF-8"?>
<svg id="Ebene_1" xmlns="http://www.w3.org/2000/svg" version="1.1" viewBox="0 0 194 40">
  <!-- Generator: Adobe Illustrator 29.7.1, SVG Export Plug-In . SVG Version: 2.1.1 Build 8)  -->
  <defs>
    <style>
      .st0 {
        fill: #fff;
      }

      .st1 {
        fill: #8a99ae;
      }
    </style>
  </defs>
  <path class="st0" d="M21.6.5c-2.9-1.3-6.3,0-7.7,2.8L.5,31.8c-1.3,2.9,0,6.3,2.8,7.6,2.9,1.3,6.3,0,7.7-2.8l13.3-28.5c1.3-2.9,0-6.3-2.8-7.6Z"/>
  <path class="st0" d="M30.8,18.7c-2.9-1.3-6.3,0-7.7,2.8l-4.8,10.3c-1.3,2.9,0,6.3,2.8,7.6,2.9,1.3,6.3,0,7.7-2.8l4.8-10.3c1.3-2.9,0-6.3-2.8-7.6Z"/>
  <path class="st0" d="M48.4,2.7h5.8v9.1l-.2,4.7c2.1-1.9,4.5-3.7,7.9-3.7,5.3,0,7.6,3.5,7.6,9.7v15.3h-5.8v-14.6c0-4-1.2-5.5-3.8-5.5s-3.6,1.1-5.6,3v17.1h-5.8V2.7h0Z"/>
  <path class="st0" d="M72.8,25.7c0-7.9,5.5-12.8,11.3-12.8s10.1,4.8,10.1,11.6-.1,2.2-.2,2.8h-15.6c.5,4.3,3.3,6.8,7.2,6.8s3.9-.7,5.7-1.8l2,3.6c-2.3,1.6-5.3,2.6-8.4,2.6-6.8,0-12.1-4.7-12.1-12.8h0ZM89.3,23.3c0-3.8-1.7-6.1-5-6.1s-5.4,2.1-5.9,6.1h10.9Z"/>
  <path class="st0" d="M97,5.9c0-1.9,1.5-3.2,3.6-3.2s3.6,1.3,3.6,3.2-1.5,3.2-3.6,3.2-3.6-1.4-3.6-3.2ZM97.7,13.4h5.8v24.4h-5.8V13.4Z"/>
  <path class="st0" d="M105.8,35.1l2.7-3.6c2.2,1.7,4.3,2.7,6.8,2.7s3.9-1.3,3.9-2.9-2.7-3-5.3-4c-3.2-1.2-6.9-3-6.9-7.1s3.4-7.3,8.9-7.3,6.2,1.4,8.2,2.9l-2.6,3.5c-1.7-1.3-3.5-2.1-5.4-2.1s-3.6,1.2-3.6,2.7,2.5,2.7,5.1,3.6c3.3,1.2,7,2.8,7,7.4s-3.3,7.6-9.5,7.6-6.9-1.4-9.3-3.4h0Z"/>
  <path class="st0" d="M127.2,25.7c0-7.9,5.5-12.8,11.3-12.8s10.1,4.8,10.1,11.6-.1,2.2-.2,2.8h-15.6c.5,4.3,3.3,6.8,7.2,6.8s3.9-.7,5.7-1.8l2,3.6c-2.3,1.6-5.3,2.6-8.4,2.6-6.8,0-12.1-4.7-12.1-12.8ZM143.6,23.3c0-3.8-1.7-6.1-5-6.1s-5.4,2.1-5.9,6.1h10.9,0Z"/>
  <path class="st1" d="M168.4,4.9h6.8l10.7,32.7h-6.2l-5-17.4c-1-3.5-2-7.2-3-10.8h-.2c-.9,3.6-1.9,7.3-2.9,10.8l-5,17.4h-5.9l10.7-32.7h0ZM164,24.2h15.5v4.6h-15.5v-4.6Z"/>
  <path class="st1" d="M188.2,4.9h5.8v32.7h-5.8V4.9Z"/>
</svg>