<svg
    xmlns="http://www.w3.org/2000/svg"
    width="194"
    height="40"
    viewBox="0 0 194 40"
    fill="none"
>
    <path
        d="M21.5663 0.540398C18.6734 -0.802262 15.2335 0.442865 13.8838 3.32452L0.54274 31.8104C-0.80574 34.6908 0.444784 38.1159 3.33893 39.4598C6.2318 40.8025 9.67169 39.5561 11.0214 36.6757L24.3625 8.18976C25.711 5.30811 24.4592 1.88306 21.5663 0.540398Z"
        fill="#14315B"
    />
    <path
        d="M30.8021 18.722C27.9092 17.3794 24.4693 18.6245 23.1195 21.5062L18.2943 31.8092C16.9445 34.6896 18.1963 38.1159 21.0905 39.4585C23.9833 40.8012 27.4232 39.5548 28.773 36.6744L33.5982 26.3714C34.948 23.4897 33.6949 20.0647 30.8021 18.722Z"
        fill="#14315B"
    />
    <path
        d="M48.4495 2.72791H54.2085V11.8263L53.9681 16.5446C56.0277 14.613 58.4677 12.8422 61.8262 12.8422C67.0852 12.8422 69.384 16.3863 69.384 22.5575V37.8879H63.625V23.2947C63.625 19.273 62.4648 17.7606 59.806 17.7606C57.6459 17.7606 56.2274 18.8158 54.2073 20.807V37.8891H48.4482V2.72791H48.4495Z"
        fill="#14315B"
    />
    <path
        d="M72.8252 25.6836C72.8252 17.7403 78.3641 12.8422 84.1423 12.8422C90.7803 12.8422 94.28 17.62 94.28 24.4498C94.28 25.5455 94.1604 26.6399 94.0307 27.2365H78.4443C78.9239 31.5761 81.7239 34.0461 85.6828 34.0461C87.7819 34.0461 89.582 33.3887 91.3821 32.274L93.3412 35.8371C91.0017 37.4103 88.0427 38.4857 84.9234 38.4857C78.1453 38.4857 72.8265 33.7471 72.8265 25.6836H72.8252ZM89.3021 23.3339C89.3021 19.5707 87.6229 17.2818 84.2631 17.2818C81.4033 17.2818 78.8845 19.4123 78.3845 23.3339H89.3021Z"
        fill="#14315B"
    />
    <path
        d="M97.0317 5.91352C97.0317 3.98186 98.5507 2.66833 100.591 2.66833C102.632 2.66833 104.151 3.98186 104.151 5.91352C104.151 7.84518 102.632 9.1587 100.591 9.1587C98.5507 9.1587 97.0317 7.80464 97.0317 5.91352ZM97.6907 13.4387H103.45V37.8878H97.6907V13.4387Z"
        fill="#14315B"
    />
    <path
        d="M105.849 35.0809L108.528 31.438C110.707 33.1303 112.818 34.1664 115.307 34.1664C117.986 34.1664 119.246 32.9124 119.246 31.2391C119.246 29.1884 116.587 28.2726 113.966 27.277C110.747 26.0724 107.067 24.2307 107.067 20.1495C107.067 16.0683 110.507 12.8422 116.006 12.8422C119.425 12.8422 122.165 14.2254 124.164 15.7681L121.524 19.292C119.804 18.038 118.074 17.1615 116.144 17.1615C113.675 17.1615 112.505 18.3357 112.505 19.8696C112.505 21.8013 114.984 22.5372 117.643 23.5125C120.963 24.7462 124.682 26.3397 124.682 30.8984C124.682 35.0987 121.344 38.4844 115.144 38.4844C111.785 38.4844 108.245 37.0506 105.846 35.0797L105.849 35.0809Z"
        fill="#14315B"
    />
    <path
        d="M127.167 25.6836C127.167 17.7403 132.705 12.8422 138.484 12.8422C145.123 12.8422 148.621 17.62 148.621 24.4498C148.621 25.5455 148.502 26.6399 148.372 27.2365H132.786C133.265 31.5761 136.065 34.0461 140.024 34.0461C142.123 34.0461 143.923 33.3887 145.722 32.274L147.681 35.8371C145.342 37.4103 142.383 38.4857 139.263 38.4857C132.484 38.4857 127.167 33.7471 127.167 25.6836ZM143.642 23.3339C143.642 19.5707 141.963 17.2818 138.604 17.2818C135.745 17.2818 133.224 19.4123 132.726 23.3339H143.643H143.642Z"
        fill="#14315B"
    />
    <path
        d="M168.385 4.89258H175.215L185.923 37.5978H179.756L174.754 20.1951C173.709 16.7346 172.745 13.0043 171.781 9.41329H171.58C170.675 13.0334 169.711 16.7346 168.666 20.1951L163.624 37.5978H157.676L168.384 4.89258H168.385ZM164.005 24.1864H179.475V28.7375H164.005V24.1864Z"
        fill="#8A99AE"
    />
    <path
        d="M188.173 4.89258H194V37.5978H188.173V4.89258Z"
        fill="#8A99AE"
    />
</svg>